<svg width="409" height="505" viewBox="0 0 409 505" fill="none" xmlns="http://www.w3.org/2000/svg">
<g id="chaves-tech">
<g id="Chaves">
<path id="chave-back-direita" opacity="0.07" d="M408.944 253.998C401.827 249.844 396.671 249.732 393.476 253.661C390.282 257.534 388.713 264.101 388.713 273.362V323.259C388.713 332.745 387.816 340.603 386.079 346.833C384.341 353.287 381.371 357.89 377.28 360.584C373.301 363.334 367.921 364.064 361.084 362.773C354.414 361.538 346.064 358.058 336.088 352.277L331.325 349.527V310.238L337.265 313.661C344.383 317.815 349.146 318.32 351.556 315.289C354.078 312.371 355.367 306.253 355.367 296.992V253.044C355.367 241.594 356.488 232.557 358.73 225.878C360.971 219.199 365.399 214.989 372.068 213.081C365.399 203.483 360.971 194.11 358.73 184.905C356.488 175.7 355.423 165.373 355.423 153.923V109.975C355.423 100.714 354.134 93.1926 351.612 87.2992C349.259 81.5181 344.495 76.5789 337.321 72.4254L331.381 69.0017V29.7124L336.144 32.4626C346.12 38.2438 354.47 44.3617 361.14 50.8725C367.977 57.4394 373.357 64.4553 377.336 71.808C381.483 79.273 384.397 87.2431 386.135 95.7183C387.872 103.969 388.769 112.893 388.769 122.323V172.22C388.769 181.481 390.338 189.9 393.532 197.421C396.727 204.999 401.883 210.836 409 214.933L408.944 253.998Z" fill="url(#paint0_linear_1_3)"/>
<path id="chave-back-esquerda" opacity="0.07" d="M228.206 109.469C235.323 113.623 240.479 113.735 243.674 109.806C246.868 105.933 248.438 99.3665 248.438 90.1055V40.2081C248.438 30.7226 249.334 22.8647 251.072 16.6346C252.809 10.1799 255.667 5.52134 259.646 2.7711C263.793 0.0769748 269.173 -0.652683 275.842 0.582122C282.68 1.87306 291.086 5.40909 301.062 11.1902L305.825 13.9405V53.2297L299.885 49.8059C292.767 45.6525 287.892 45.0912 285.37 48.0099C283.016 51.0407 281.783 57.1586 281.783 66.4197V110.368C281.783 121.818 280.662 130.854 278.42 137.533C276.179 144.156 271.751 148.422 265.082 150.33C271.751 159.928 276.179 169.301 278.42 178.506C280.662 187.711 281.727 198.039 281.727 209.489V253.437C281.727 262.698 282.904 270.219 285.314 276C287.836 281.893 292.711 286.889 299.829 290.986L305.769 294.41V333.699L301.006 330.949C291.03 325.167 282.624 318.993 275.786 312.427C269.117 305.916 263.737 298.956 259.59 291.491C255.611 284.138 252.753 276.224 251.015 267.693C249.278 259.442 248.381 250.518 248.381 241.088V191.191C248.381 181.93 246.812 173.511 243.618 165.99C240.423 158.413 235.267 152.575 228.15 148.478L228.206 109.469Z" fill="url(#paint1_linear_1_3)"/>
<path id="chave-frente-direita" opacity="0.4" d="M386.527 270.836C379.409 266.683 374.254 266.57 371.059 270.499C367.865 274.372 366.295 280.939 366.295 290.2V340.097C366.295 349.583 365.399 357.441 363.661 363.671C361.924 370.126 358.954 374.728 354.863 377.422C350.884 380.172 345.504 380.902 338.666 379.611C331.997 378.376 323.647 374.896 313.671 369.115L308.908 366.365V327.076L314.848 330.5C321.966 334.653 326.729 335.158 329.139 332.127C331.661 329.209 332.95 323.091 332.95 313.83V269.882C332.95 258.432 334.071 249.395 336.313 242.716C338.554 236.037 342.982 231.827 349.651 229.919C342.982 220.321 338.554 210.948 336.313 201.743C334.071 192.538 333.006 182.211 333.006 170.761V126.813C333.006 117.552 331.717 110.031 329.195 104.137C326.841 98.3562 322.078 93.417 314.904 89.2636L308.964 85.8398V46.5505L313.727 49.3008C323.703 55.0819 332.053 61.1998 338.722 67.7106C345.56 74.2775 350.94 81.2935 354.919 88.6462C359.066 96.1111 361.98 104.081 363.718 112.556C365.455 120.807 366.352 129.731 366.352 139.161V189.058C366.352 198.319 367.921 206.738 371.115 214.26C374.31 221.837 379.466 227.674 386.583 231.771L386.527 270.836Z" fill="#CBD7E3"/>
<path id="chave-frente-esquerda" opacity="0.4" d="M205.789 126.308C212.906 130.461 218.062 130.573 221.257 126.644C224.451 122.772 226.02 116.205 226.02 106.944V57.0463C226.02 47.5607 226.917 39.7029 228.654 33.4727C230.392 27.0181 233.25 22.3595 237.229 19.6092C241.376 16.9151 246.756 16.1855 253.425 17.4203C260.262 18.7112 268.669 22.2472 278.645 28.0284L283.408 30.7786V70.0679L277.468 66.6441C270.35 62.4906 265.474 61.9294 262.953 64.848C260.599 67.8789 259.366 73.9968 259.366 83.2578V127.206C259.366 138.656 258.245 147.692 256.003 154.371C253.762 160.994 249.334 165.26 242.665 167.168C249.334 176.766 253.762 186.14 256.003 195.344C258.245 204.549 259.31 214.877 259.31 226.327V270.275C259.31 279.536 260.487 287.057 262.897 292.838C265.418 298.731 270.294 303.727 277.412 307.824L283.352 311.248V350.537L278.588 347.787C268.613 342.006 260.206 335.832 253.369 329.265C246.7 322.754 241.32 315.794 237.173 308.329C233.194 300.976 230.336 293.062 228.598 284.531C226.861 276.28 225.964 267.356 225.964 257.927V208.029C225.964 198.768 224.395 190.349 221.201 182.828C218.006 175.251 212.85 169.414 205.733 165.316L205.789 126.308Z" fill="url(#paint2_linear_1_3)"/>
</g>
<g id="pagina-esquerda-tras">
<path id="Vector" opacity="0.15" d="M81.3742 6.86841L177.151 62.2662L177.095 291.996L81.3181 236.598L81.3742 6.86841Z" fill="url(#paint3_linear_1_3)"/>
<path id="Vector_2" d="M63.3844 42.1726L139.546 86.2327V107.393L63.3844 63.3327V42.1726Z" fill="#3BCCA8"/>
<path id="Vector_3" opacity="0.15" d="M93.1992 133.997L166.391 176.317V209.208L93.1992 166.888V133.997Z" fill="#CBD7E3"/>
<path id="Vector_4" opacity="0.15" d="M93.1432 94.2029L166.447 136.579V144.212L93.1432 101.892V94.2029Z" fill="#CBD7E3"/>
<path id="Vector_5" opacity="0.15" d="M93.1432 109.133L156.528 145.784V153.417L93.1432 116.766V109.133Z" fill="#CBD7E3"/>
<path id="Vector_6" opacity="0.2" d="M81.3741 6.86841L177.151 62.2663V93.0803L81.3741 37.6824V6.86841Z" fill="url(#paint4_linear_1_3)"/>
<path id="Vector_7" opacity="0.2" d="M105.304 36.2792C105.304 40.9377 102.558 43.1267 99.1958 41.2184C95.8332 39.2539 93.1432 33.9218 93.1432 29.2632C93.1432 24.6046 95.8893 22.4157 99.2518 24.324C102.558 26.2885 105.304 31.6206 105.304 36.2792Z" fill="#CBD7E3"/>
</g>
<g id="pagina-direta">
<path id="Vector_8" opacity="0.15" d="M199.064 219.872L294.841 275.27L294.785 505L199.008 449.602L199.064 219.872Z" fill="url(#paint5_linear_1_3)"/>
<path id="Vector_9" d="M235.548 286.72L311.71 330.724V351.828L235.492 307.824L235.548 286.72Z" fill="#3BCCA8"/>
<path id="Vector_10" opacity="0.15" d="M210.889 308.554L284.137 350.93V383.765L210.889 341.388V308.554Z" fill="#CBD7E3"/>
<path id="Vector_11" opacity="0.15" d="M210.777 355.476L284.081 397.853V405.486L210.777 363.166V355.476Z" fill="#CBD7E3"/>
<path id="Vector_12" opacity="0.15" d="M210.777 369.284L274.161 405.935V413.568L210.777 376.917V369.284Z" fill="#CBD7E3"/>
<path id="Vector_13" opacity="0.2" d="M199.064 219.872L294.841 275.27V306.084L199.064 250.686V219.872Z" fill="url(#paint6_linear_1_3)"/>
<path id="Vector_14" opacity="0.2" d="M222.994 249.339C222.994 253.998 220.248 256.187 216.885 254.278C213.523 252.314 210.833 246.982 210.833 242.323C210.833 237.665 213.579 235.476 216.942 237.384C220.248 239.292 222.994 244.681 222.994 249.339Z" fill="#CBD7E3"/>
</g>
<g id="pagina-esquerda">
<path id="Vector_15" opacity="0.3" d="M182.475 251.697L15.748 155.326L15.8041 242.379L167.848 330.275L182.587 352.109L182.475 251.697Z" fill="url(#paint7_linear_1_3)"/>
<path id="Vector_16" opacity="0.15" d="M139.603 248.104L103.063 227V234.634L139.603 255.738V248.104Z" fill="#CBD7E3"/>
<path id="Vector_17" opacity="0.15" d="M139.603 263.427L49.1495 211.116V218.75L139.659 271.061L139.603 263.427Z" fill="#CBD7E3"/>
<path id="Vector_18" opacity="0.15" d="M139.659 278.75L30.4314 215.606V223.24L139.659 286.383V278.75Z" fill="#CBD7E3"/>
<path id="circulo-centro" d="M148.625 261.294C148.625 268.479 152.885 276.729 158.097 279.76C163.309 282.791 167.568 279.423 167.568 272.239C167.568 265.055 163.309 256.804 158.097 253.773C152.829 250.742 148.625 254.11 148.625 261.294Z" fill="#3BCCA8"/>
</g>
<g id="la&#195;&#167;os-1">
<path id="la&#195;&#167;o" opacity="0.15" d="M32.2246 94.2027L10.1438 81.4056V73.9407L32.2246 86.7377C34.018 87.8042 36.652 89.8809 38.8937 93.1363C41.3036 96.6162 43.0409 100.994 43.0409 105.765C43.0409 111.041 41.6959 114.016 39.1739 114.914C36.7641 115.7 33.962 114.352 32.2246 113.342L23.1457 108.066L23.0897 108.01C22.3051 107.561 21.0721 107.112 20.1194 107.393C19.3348 107.617 18.3821 108.459 18.3821 111.378C18.3821 114.296 19.2788 116.092 20.0634 117.159C21.0161 118.506 22.249 119.46 23.0336 119.853L23.1457 119.909L50.9429 135.962V143.427L23.3138 127.43C21.4084 126.42 18.6623 124.343 16.3085 121.032C13.7305 117.383 11.9372 112.781 11.9372 107.617C11.9372 102.51 13.7305 99.8716 16.2525 99.1419C18.6063 98.4684 21.3523 99.4787 23.2578 100.601L32.2807 105.821C33.5697 106.551 34.5784 106.888 35.1949 106.663C35.6993 106.495 36.596 105.765 36.596 102.004C36.596 99.5348 35.8114 97.9632 35.0268 96.8407C34.1301 95.6059 32.9532 94.5956 32.2246 94.2027Z" fill="#CBD7E3"/>
<path id="circulo-alto" d="M16.7007 82.1915C16.7007 88.59 12.9459 91.5648 8.35037 88.9268C3.75486 86.2888 0 78.9361 0 72.5376C0 66.139 3.75486 63.1643 8.35037 65.8023C12.9459 68.4964 16.7007 75.8491 16.7007 82.1915Z" fill="#3BCCA8"/>
<path id="circulo-baixo" d="M60.9745 143.932C60.9745 150.33 57.2197 153.305 52.6242 150.667C48.0287 148.029 44.2738 140.676 44.2738 134.278C44.2738 127.879 48.0287 124.904 52.6242 127.542C57.2197 130.237 60.9745 137.589 60.9745 143.932Z" fill="#3BCCA8"/>
</g>
<path id="mais" opacity="0.2" d="M120.548 339.087C123.911 341.052 126.601 345.71 126.601 349.639V366.758L137.921 373.269C141.284 375.233 143.974 379.892 143.974 383.821C143.974 387.694 141.228 389.265 137.921 387.357L126.601 380.846V397.965C126.601 401.838 123.855 403.409 120.548 401.501C117.186 399.536 114.495 394.878 114.495 390.949V373.83L103.175 367.319C99.8123 365.355 97.1222 360.696 97.1222 356.767C97.1222 352.895 99.8683 351.323 103.175 353.231L114.495 359.742V342.623C114.495 338.694 117.186 337.123 120.548 339.087Z" fill="url(#paint8_linear_1_3)"/>
</g>
<g id="undraw_percentages_wi9e 1" clip-path="url(#clip0_1_3)">
</g>
<defs>
<linearGradient id="paint0_linear_1_3" x1="444.203" y1="41.0605" x2="305.671" y2="280.795" gradientUnits="userSpaceOnUse">
<stop stop-color="white"/>
<stop offset="1" stop-color="white" stop-opacity="0"/>
</linearGradient>
<linearGradient id="paint1_linear_1_3" x1="377.743" y1="1.61869" x2="239.211" y2="241.353" gradientUnits="userSpaceOnUse">
<stop stop-color="white"/>
<stop offset="1" stop-color="white" stop-opacity="0"/>
</linearGradient>
<linearGradient id="paint2_linear_1_3" x1="355.326" y1="18.4567" x2="216.793" y2="258.191" gradientUnits="userSpaceOnUse">
<stop stop-color="white"/>
<stop offset="1" stop-color="white" stop-opacity="0"/>
</linearGradient>
<linearGradient id="paint3_linear_1_3" x1="178.889" y1="63.2503" x2="87.1813" y2="221.894" gradientUnits="userSpaceOnUse">
<stop stop-color="white"/>
<stop offset="1" stop-color="white" stop-opacity="0"/>
</linearGradient>
<linearGradient id="paint4_linear_1_3" x1="114.236" y1="7.33747" x2="143.464" y2="90.0851" gradientUnits="userSpaceOnUse">
<stop stop-color="white"/>
<stop offset="1" stop-color="white" stop-opacity="0"/>
</linearGradient>
<linearGradient id="paint5_linear_1_3" x1="296.574" y1="276.268" x2="204.867" y2="434.912" gradientUnits="userSpaceOnUse">
<stop stop-color="white"/>
<stop offset="1" stop-color="white" stop-opacity="0"/>
</linearGradient>
<linearGradient id="paint6_linear_1_3" x1="231.921" y1="220.356" x2="261.149" y2="303.103" gradientUnits="userSpaceOnUse">
<stop stop-color="white"/>
<stop offset="1" stop-color="white" stop-opacity="0"/>
</linearGradient>
<linearGradient id="paint7_linear_1_3" x1="146.122" y1="216.859" x2="59.9124" y2="284.257" gradientUnits="userSpaceOnUse">
<stop stop-color="white"/>
<stop offset="1" stop-color="white" stop-opacity="0"/>
</linearGradient>
<linearGradient id="paint8_linear_1_3" x1="132.238" y1="360.956" x2="102.853" y2="384.096" gradientUnits="userSpaceOnUse">
<stop stop-color="white"/>
<stop offset="1" stop-color="white" stop-opacity="0"/>
</linearGradient>
<clipPath id="clip0_1_3">
<rect width="549" height="469" fill="white" transform="translate(-514 358)"/>
</clipPath>
</defs>
</svg>
