<svg width="241" height="1038" viewBox="0 0 241 1038" fill="none" xmlns="http://www.w3.org/2000/svg">
<g id="Circles">
<g id="Cicles-C" class="circles-c">
<path id="Vector" d="M110.845 277.277C112.904 278.709 113.916 280.09 114.45 282.446C114.708 284.985 114.449 286.928 113.108 289.197C110.959 291.546 108.964 292.77 105.689 293.023C103.318 292.961 101.342 292.155 99.3319 291.017C97.3322 289.022 96.4594 287.101 96.3419 284.345C96.4667 281.511 97.3896 279.369 99.6114 277.435C103.231 275.158 107.177 275.093 110.845 277.277Z" fill="#112D4E"/>
<path id="Vector_2" d="M111.458 443.014C113.201 444.439 114.331 446.193 114.541 448.373C114.599 451.35 114.174 453.438 112.047 455.763C109.846 457.543 108.007 458.395 105.061 458.401C102.429 458.14 100.238 457.211 98.354 455.447C96.6299 453.335 96.2789 451.185 96.3944 448.561C96.7491 446.218 97.7718 444.442 99.6115 442.841C103.43 440.439 107.719 440.555 111.458 443.014Z" fill="#112D4E"/>
<path id="Vector_3" d="M110.536 332.123C112.439 333.423 113.875 335.13 114.45 337.3C114.795 340.189 114.498 342.508 112.661 344.895C111.049 346.493 109.291 347.737 106.936 347.976C102.15 347.993 102.15 347.993 100.142 346.583C97.7639 344.338 96.5125 342.788 96.3979 339.541C96.4209 336.983 97.0149 335.414 98.8011 333.502C102.134 330.514 106.507 329.949 110.536 332.123Z" fill="#112D4E"/>
<path id="Vector_4" d="M110.536 166.717C112.439 168.017 113.875 169.724 114.45 171.894C114.795 174.783 114.498 177.102 112.661 179.489C111.049 181.087 109.291 182.331 106.936 182.57C102.15 182.587 102.15 182.587 100.142 181.177C97.7639 178.932 96.5125 177.382 96.3979 174.135C96.4209 171.577 97.0149 170.008 98.8011 168.096C102.134 165.108 106.507 164.543 110.536 166.717Z" fill="#112D4E"/>
<path id="Vector_5" d="M110.845 111.871C112.904 113.303 113.916 114.684 114.45 117.04C114.708 119.579 114.449 121.521 113.108 123.791C110.959 126.14 108.964 127.364 105.689 127.617C103.318 127.555 101.342 126.749 99.3319 125.611C97.3322 123.616 96.4594 121.695 96.3419 118.938C96.4596 116.178 97.3244 114.241 99.3599 112.266C103.223 110.029 106.849 109.502 110.845 111.871Z" fill="#112D4E"/>
<path id="Vector_6" d="M109.16 55.7228C111.419 56.8571 112.872 58.5478 114.142 60.6033C114.882 63.3935 114.811 66.0558 113.292 68.5891C111.853 70.3463 109.965 71.6134 107.743 72.3125C104.687 72.625 102.218 72.3534 99.6954 70.6247C98.0017 69.1035 96.6837 67.444 96.4312 65.2217C96.4129 60.7047 96.4129 60.7047 97.907 58.81C101.14 55.7585 104.522 54.3426 109.16 55.7228Z" fill="#112D4E"/>
<path id="Vector_7" d="M111.32 773.6C113.744 775.979 114.622 778.071 114.572 781.352C114.251 784.264 112.62 786.091 110.284 787.892C108.003 789.336 104.99 789.085 102.378 788.791C100.117 787.959 98.4494 786.676 97.2082 784.703C96.1582 782.315 96.1213 779.764 96.8449 777.284C97.8837 774.995 99.6552 773.547 101.931 772.335C105.277 771.333 108.417 771.776 111.32 773.6Z" fill="#112D4E"/>
<path id="Vector_8" d="M109.727 717.507C111.828 719.006 113.839 720.909 114.45 723.388C114.791 726.285 114.494 728.586 112.661 730.983C110.64 733.089 108.494 733.847 105.536 734.068C102.433 733.979 100.064 732.597 97.9068 730.561C96.3593 728.127 96.1978 725.766 96.5655 722.966C97.2569 720.434 98.8269 718.852 101.169 717.508C103.945 716.475 106.918 716.687 109.727 717.507Z" fill="#112D4E"/>
<path id="Vector_9" d="M109.699 552.101C111.823 553.58 113.838 555.498 114.45 557.982C114.791 560.879 114.494 563.18 112.661 565.577C110.649 567.673 108.509 568.438 105.563 568.663C103.21 568.586 101.136 568.105 99.3529 566.597C97.0324 564.157 96.3485 561.996 96.4275 558.735C96.6784 556.598 97.4284 554.98 99.1224 553.523C102.267 551.317 105.96 550.99 109.699 552.101Z" fill="#112D4E"/>
<path id="Vector_10" d="M139.236 304.203C141.426 305.409 142.72 307.212 143.511 309.451C143.809 312.598 143.808 314.93 141.723 317.468C139.715 319.41 137.776 320.434 134.905 320.58C132.316 320.515 130.011 319.759 128.039 318.147C125.988 315.99 125.404 313.665 125.489 310.844C125.891 308.018 127.515 306.199 129.793 304.442C132.351 302.823 136.508 303.053 139.236 304.203Z" fill="#112D4E"/>
<path id="Vector_11" d="M109.699 221.289C111.823 222.768 113.838 224.686 114.45 227.17C114.786 230.029 114.563 232.437 112.661 234.765C110.069 237.066 107.868 237.885 104.334 237.836C101.919 237.569 100.008 236.498 98.4099 234.791C96.4802 232.167 96.2528 229.88 96.5656 226.748C97.4728 224.315 99.0813 222.815 101.288 221.341C104.045 220.443 106.921 220.463 109.699 221.289Z" fill="#112D4E"/>
<path id="Vector_12" d="M139.55 83.9825C141.388 85.2358 142.793 86.736 143.511 88.7691C143.807 91.857 143.843 94.696 141.723 97.2081C139.11 99.4503 136.757 99.9145 133.265 99.8866C130.633 99.6064 129.047 98.344 127.248 96.6016C125.766 94.3954 125.281 92.2097 125.627 89.613C126.663 86.7293 128.068 84.6634 130.993 83.2837C133.994 82.4467 136.798 82.5277 139.55 83.9825Z" fill="#112D4E"/>
<path id="Vector_13" d="M110.426 1.42443C112.624 2.86047 113.69 4.05801 114.45 6.48788C114.852 9.35777 114.502 11.7247 112.661 14.083C110.96 15.7578 109.515 16.9429 106.98 17.1224C102.165 17.191 102.165 17.191 100.142 15.7709C97.7639 13.5261 96.5125 11.9759 96.3979 8.72951C96.4209 6.17138 97.0149 4.6023 98.8011 2.69029C102.236 -0.389575 106.297 -0.707645 110.426 1.42443Z" fill="#112D4E"/>
<path id="Vector_14" d="M111.32 939.006C113.744 941.385 114.623 943.476 114.572 946.757C114.251 949.669 112.62 951.496 110.284 953.298C108.102 954.679 105.334 954.406 102.825 954.196C100.299 953.549 98.8378 952.302 97.4196 950.265C96.1172 947.991 96.1417 945.14 96.8397 942.681C97.8985 940.401 99.6531 938.953 101.931 937.74C105.277 936.738 108.418 937.181 111.32 939.006Z" fill="#112D4E"/>
<path id="Vector_15" d="M109.727 882.912C111.828 884.412 113.839 886.314 114.45 888.793C114.791 891.691 114.494 893.992 112.661 896.389C110.656 898.478 108.517 899.229 105.591 899.5C103.129 899.429 100.826 898.6 98.9757 897.053C96.8194 894.736 96.3501 892.538 96.4311 889.545C96.6893 887.292 97.4776 885.828 99.1643 884.226C102.321 881.877 105.969 881.816 109.727 882.912Z" fill="#112D4E"/>
<path id="Vector_16" d="M138.705 745.145C140.942 746.344 142.695 748.082 143.511 750.393C143.937 755.747 143.937 755.747 142.17 757.988C139.881 760.148 138.254 761.411 134.933 761.495C132.147 761.464 130.146 760.867 128.072 759.089C126.079 757.01 125.426 754.863 125.515 752.086C125.854 749.518 127.308 747.54 129.204 745.751C132.175 744.102 135.531 743.816 138.705 745.145Z" fill="#112D4E"/>
<path id="Vector_17" d="M138.913 634.802C141.253 636.158 142.827 637.723 143.511 640.263C143.95 643.215 143.821 645.579 141.912 648.02C139.818 650.266 137.801 651.075 134.681 651.418C131.806 651.345 129.213 649.955 127.192 648.095C125.709 645.704 125.238 643.421 125.627 640.685C126.469 638.074 128.165 636.284 130.545 634.778C133.199 633.943 136.288 633.836 138.913 634.802Z" fill="#112D4E"/>
<path id="Vector_18" d="M138.705 414.333C140.942 415.532 142.695 417.27 143.511 419.581C143.73 422.326 143.916 424.847 142.17 427.176C140.443 429.07 138.802 430.368 136.113 430.687C132.924 430.812 130.471 430.333 128.072 428.277C126.078 426.198 125.429 424.053 125.514 421.275C125.822 418.968 127.039 416.982 128.757 415.361C131.792 413.327 135.267 412.903 138.705 414.333Z" fill="#112D4E"/>
<path id="Vector_19" d="M109.699 386.695C111.823 388.174 113.838 390.092 114.45 392.576C114.786 395.435 114.563 397.843 112.661 400.171C110.175 402.378 108.129 403.278 104.68 403.212C102.158 402.983 100.334 402.222 98.6334 400.435C96.4392 397.901 96.2494 395.319 96.5656 392.154C97.4727 389.721 99.0813 388.221 101.288 386.747C104.045 385.849 106.921 385.869 109.699 386.695Z" fill="#112D4E"/>
<path id="Vector_20" d="M138.705 248.927C140.942 250.126 142.695 251.864 143.511 254.175C143.73 256.92 143.916 259.441 142.17 261.77C140.443 263.664 138.802 264.962 136.113 265.281C132.924 265.406 130.471 264.927 128.072 262.871C126.078 260.792 125.429 258.647 125.514 255.869C125.822 253.562 127.039 251.576 128.757 249.955C131.792 247.921 135.267 247.497 138.705 248.927Z" fill="#112D4E"/>
<path id="Vector_21" d="M139.431 194.152C141.329 195.441 142.62 196.86 143.511 198.899C143.905 201.855 143.949 204.614 141.995 207.063C139.923 209.071 137.689 210.192 134.7 210.343C131.816 210.199 129.847 209.413 127.891 207.391C126.111 205.249 125.379 203.519 125.461 200.786C125.83 198.466 126.85 196.351 128.745 194.803C132.072 192.766 135.821 192.335 139.431 194.152Z" fill="#112D4E"/>
<path id="Vector_22" d="M141.586 1019.99C143.561 1021.73 145.235 1023.68 145.568 1026.28C145.609 1029.29 145.507 1031.77 143.497 1034.19C140.681 1036.64 138.184 1037.1 134.428 1037.06C131.741 1036.82 130.087 1035.67 128.302 1033.76C126.394 1031.2 125.88 1029.06 126.302 1025.94C127.169 1023.04 128.452 1021.2 131.078 1019.53C134.519 1018.03 138.326 1018.14 141.586 1019.99Z" fill="#112D4E"/>
<path id="Vector_23" d="M140.614 959.681C143.02 960.971 144.796 962.744 145.714 965.217C146.172 968.044 146.232 970.69 144.656 973.208C142.841 975.486 140.944 976.832 137.974 977.503C134.63 977.794 132.001 977.097 129.388 975.142C127.274 972.656 125.998 970.391 126.182 967.142C126.729 964.112 128.393 962.176 130.872 960.27C133.494 958.616 137.72 958.755 140.614 959.681Z" fill="#112D4E"/>
<path id="Vector_24" d="M138.705 910.313C140.773 911.733 142.693 913.481 143.511 915.799C143.936 921.136 143.936 921.136 142.17 923.394C139.897 925.587 137.945 926.776 134.653 926.928C132.341 926.869 130.601 926.423 128.757 925.082C126.418 922.735 125.464 920.805 125.535 917.549C125.778 915.169 126.583 913.447 128.478 911.843C131.456 909.545 135.088 909.263 138.705 910.313Z" fill="#112D4E"/>
<path id="Vector_25" d="M139.089 855.409C141.12 856.542 142.638 858.472 143.511 860.522C143.858 863.188 143.866 865.87 142.366 868.22C140.678 870.167 138.905 871.328 136.239 871.693C133.641 871.757 131.341 871.752 129.204 870.227C126.99 868.178 125.634 866.347 125.46 863.37C125.533 861.185 126.067 859.363 127.416 857.569C130.919 854.722 134.726 853.707 139.089 855.409Z" fill="#112D4E"/>
<path id="Vector_26" d="M111.32 608.194C113.377 610.139 114.502 612.043 114.589 614.814C114.549 617.421 113.821 619.311 111.877 621.187C109.266 623.353 107.505 623.585 104 623.554C101.568 623.3 100.049 622.495 98.354 620.853C96.5875 618.768 96.279 616.588 96.3944 613.966C96.7511 611.61 97.7737 609.841 99.6394 608.247C103.459 605.796 107.411 606.004 111.32 608.194Z" fill="#112D4E"/>
<path id="Vector_27" d="M110.536 497.529C112.439 498.829 113.875 500.536 114.45 502.706C114.795 505.598 114.495 507.91 112.661 510.301C110.961 512.029 109.051 513.098 106.559 513.396C103.817 513.433 101.82 513.287 99.6953 511.567C97.4773 509.478 96.5043 507.963 96.3979 504.947C96.4208 502.389 97.0149 500.82 98.8011 498.908C102.134 495.92 106.507 495.355 110.536 497.529Z" fill="#112D4E"/>
<path id="Vector_28" d="M108.009 989.055C110.766 990.231 112.334 991.886 113.857 994.326C114.677 997.395 114.556 1000.21 112.86 1002.99C111.358 1004.93 109.385 1006.39 106.878 1006.98C103.538 1007.33 100.859 1007.02 98.1007 1005.15C96.2586 1003.51 94.8335 1001.72 94.5236 999.332C94.4816 996.272 94.6106 994.377 96.6379 991.933C99.9189 988.866 103.46 987.795 108.009 989.055Z" fill="#112D4E"/>
<path id="Vector_29" d="M110.536 662.934C112.439 664.234 113.875 665.942 114.45 668.112C114.795 671.004 114.495 673.316 112.661 675.707C110.963 677.433 109.055 678.485 106.575 678.817C103.524 678.888 101.571 678.459 99.2482 676.551C97.2196 674.641 96.493 673.05 96.3979 670.353C96.4208 667.795 97.0149 666.226 98.8011 664.314C102.134 661.326 106.507 660.761 110.536 662.934Z" fill="#112D4E"/>
<path id="Vector_30" d="M139.487 525.069C141.479 526.407 142.757 527.497 143.511 529.711C143.882 532.689 143.98 535.409 141.988 537.873C139.768 540.05 137.977 540.809 134.737 540.893C132.142 540.783 130.388 540.512 128.483 538.748C126.347 536.54 125.37 534.618 125.461 531.598C125.83 529.278 126.85 527.162 128.745 525.615C132.286 523.447 135.669 523.169 139.487 525.069Z" fill="#112D4E"/>
<path id="Vector_31" d="M139.236 469.609C141.426 470.815 142.72 472.617 143.511 474.857C143.836 477.809 143.822 480.173 141.912 482.614C139.818 484.86 137.801 485.669 134.681 486.012C131.806 485.939 129.213 484.549 127.192 482.689C125.709 480.298 125.238 478.015 125.627 475.279C126.469 472.668 128.165 470.878 130.545 469.371C133.282 468.511 136.577 468.488 139.236 469.609Z" fill="#112D4E"/>
<path id="Vector_32" d="M138.319 138.413C140.56 139.351 141.906 140.758 143.064 142.779C143.861 145.035 143.969 147.739 143.206 150.023C141.964 152.226 140.139 153.699 137.755 154.726C134.319 155.439 131.747 155.073 128.757 153.328C126.502 151.489 125.722 149.375 125.487 146.629C125.568 144.408 126.072 142.437 127.692 140.768C130.879 138.109 134.097 137.324 138.319 138.413Z" fill="#112D4E"/>
<path id="Vector_33" d="M140.829 29.6954C143.315 32.2316 143.746 34.1899 143.677 37.6004C143.387 40.01 142.388 41.4437 140.472 43.0117C138.017 44.6478 135.6 45.1514 132.636 44.7423C129.359 43.9391 127.553 41.8956 125.879 39.2157C125.248 36.5032 125.353 34.1891 126.822 31.7442C128.234 29.8822 129.83 28.7172 132.054 27.823C135.468 27.3231 138.009 27.8167 140.829 29.6954Z" fill="#112D4E"/>
<path id="Vector_34" d="M138.705 579.739C140.942 580.938 142.695 582.676 143.511 584.987C143.936 590.325 143.936 590.325 142.17 592.582C139.986 594.644 138.084 596.073 134.905 596.116C132.488 596.061 130.677 595.694 128.757 594.27C126.405 591.905 125.473 589.985 125.531 586.709C125.813 584.13 127.31 582.133 129.204 580.346C132.175 578.696 135.53 578.41 138.705 579.739Z" fill="#112D4E"/>
<path id="Vector_35" d="M110.536 828.341C112.439 829.641 113.875 831.348 114.45 833.518C114.795 836.41 114.495 838.722 112.661 841.113C110.617 843.19 108.557 844.093 105.592 844.225C102.966 844.166 100.926 843.484 99.009 841.763C96.7866 839.353 96.3377 837.521 96.3945 834.382C96.7244 831.903 98.0477 830.396 99.9189 828.718C103.273 826.66 107.015 826.441 110.536 828.341Z" fill="#112D4E"/>
<path id="Vector_36" d="M138.813 800.144C141.191 801.465 142.633 803.182 143.511 805.669C143.83 808.571 143.847 810.986 141.974 813.396C139.903 815.507 137.943 816.525 134.905 816.745C132.331 816.583 130.446 815.97 128.422 814.451C126.467 812.145 125.288 810.045 125.458 807.032C125.964 804.223 127.501 802.428 129.793 800.66C132.212 799.129 136.158 799.233 138.813 800.144Z" fill="#112D4E"/>
<path id="Vector_37" d="M139.934 690.475C141.784 692.07 143.35 693.876 143.661 696.27C143.7 699.045 143.64 701.344 141.723 703.556C139.614 705.555 137.691 706.251 134.709 706.325C131.619 706.169 129.842 705.559 127.751 703.398C126.027 701.353 125.383 699.621 125.461 697.004C125.83 694.684 126.85 692.568 128.745 691.021C132.251 688.874 136.218 688.44 139.934 690.475Z" fill="#112D4E"/>
<path id="Vector_38" d="M139.431 359.558C141.329 360.847 142.62 362.265 143.511 364.305C143.904 367.256 143.958 370.03 141.988 372.467C139.768 374.644 137.977 375.403 134.737 375.486C132.142 375.376 130.388 375.106 128.483 373.342C126.347 371.134 125.37 369.212 125.461 366.192C125.83 363.872 126.85 361.756 128.745 360.209C132.072 358.172 135.821 357.74 139.431 359.558Z" fill="#112D4E"/>
</g>
<g id="cicles-D" class="circles-d">
<path id="Vector_39" d="M168.297 827.9C170.657 829.205 171.934 831.006 172.805 833.417C173.374 835.917 172.937 838.223 171.595 840.427C170.223 842.285 168.589 843.351 166.313 844.067C163.18 844.358 160.342 844.313 157.819 842.379C155.925 840.428 154.75 838.406 154.612 835.74C154.822 833.129 155.786 830.69 157.819 828.876C160.946 826.75 164.771 826.382 168.297 827.9Z" fill="#112D4E"/>
<path id="Vector_40" d="M168.298 662.495C170.657 663.799 171.934 665.6 172.805 668.011C173.374 670.511 172.937 672.817 171.595 675.021C170.223 676.879 168.589 677.945 166.314 678.661C163.18 678.952 160.342 678.907 157.819 676.973C155.925 675.022 154.75 673.001 154.612 670.334C154.822 667.723 155.786 665.285 157.819 663.47C160.947 661.344 164.771 660.976 168.298 662.495Z" fill="#112D4E"/>
<path id="Vector_41" d="M168.689 111.423C170.819 113.152 172.489 114.804 173.02 117.462C173.056 120.273 172.817 122.458 170.785 124.635C168.739 126.523 166.9 127.592 163.973 127.587C161.064 127.37 158.897 126.616 156.813 124.635C154.957 122.441 154.511 119.928 154.813 117.173C155.511 114.343 157.037 112.683 159.607 111.132C162.605 109.875 165.784 110.026 168.689 111.423Z" fill="#112D4E"/>
<path id="Vector_42" d="M169.075 497.453C171.332 499.145 172.636 501.315 173.048 503.998C173.167 506.587 172.336 508.446 170.924 510.617C168.832 512.538 166.78 513.354 163.854 513.465C161.009 513.343 158.969 512.752 157.019 510.743C155.354 508.612 154.479 506.637 154.689 503.972C155.198 501.413 156.109 499.752 158.266 498.064C158.57 497.82 158.874 497.577 159.188 497.326C162.023 495.6 166.239 495.906 169.075 497.453Z" fill="#112D4E"/>
<path id="Vector_43" d="M168.996 442.366C170.945 444 172.608 445.793 173.02 448.274C173.055 451.915 172.287 453.925 169.639 456.607C167.748 457.996 165.534 458.33 163.184 458.401C160.423 458.006 158.408 456.891 156.477 455.025C154.978 452.83 154.475 450.633 154.837 448.068C155.558 445.177 156.993 443.559 159.607 441.944C162.71 440.57 166.051 440.726 168.996 442.366Z" fill="#112D4E"/>
<path id="Vector_44" d="M167.543 331.472C169.806 332.663 171.515 334.209 172.573 336.456C173.329 339.629 173.014 342.023 171.2 344.778C169.903 346.428 168.416 347.398 166.313 347.849C163.109 348.215 160.476 347.968 157.819 346.161C155.792 344.352 154.792 341.895 154.628 339.283C154.784 336.848 155.654 334.908 157.371 333.08C160.501 330.84 163.849 330.368 167.543 331.472Z" fill="#112D4E"/>
<path id="Vector_45" d="M226.721 938.113C228.753 939.245 230.27 941.176 231.143 943.226C231.49 945.891 231.498 948.573 229.998 950.923C228.31 952.87 226.537 954.032 223.871 954.396C221.273 954.46 218.973 954.455 216.836 952.931C214.597 950.858 213.254 949.033 213.12 946.021C213.192 943.272 214.301 940.925 216.389 939.006C219.781 937.07 223.005 936.663 226.721 938.113Z" fill="#112D4E"/>
<path id="Vector_46" d="M226.545 717.505C228.885 718.861 230.459 720.426 231.143 722.966C231.582 725.919 231.454 728.282 229.544 730.723C227.446 732.974 225.424 733.804 222.285 734.095C219.691 734.011 217.384 733.208 215.554 731.445C213.445 728.892 212.866 726.607 213.259 723.388C214.093 720.778 215.801 718.985 218.177 717.481C220.831 716.646 223.92 716.539 226.545 717.505Z" fill="#112D4E"/>
<path id="Vector_47" d="M227.198 497.497C229.021 498.764 230.426 500.252 231.143 502.284C231.569 507.638 231.569 507.638 229.802 509.879C227.513 512.039 225.886 513.302 222.565 513.386C219.785 513.355 217.756 512.768 215.704 510.965C213.585 508.715 213.045 506.726 213.12 503.787C213.421 501.454 214.507 499.668 216.361 498.117C219.739 495.905 223.542 495.537 227.198 497.497Z" fill="#112D4E"/>
<path id="Vector_48" d="M226.868 386.906C229.058 388.111 230.352 389.914 231.143 392.154C231.468 395.106 231.454 397.47 229.544 399.91C227.431 402.178 225.4 403.019 222.229 403.256C219.386 403.18 217.09 401.991 215.048 400.171C213.283 397.792 212.91 395.431 213.259 392.576C214.093 389.965 215.801 388.172 218.177 386.668C220.914 385.807 224.209 385.785 226.868 386.906Z" fill="#112D4E"/>
<path id="Vector_49" d="M227.198 332.091C229.021 333.359 230.426 334.846 231.143 336.878C231.569 342.232 231.569 342.232 229.802 344.473C227.424 346.718 225.781 347.899 222.341 348.007C219.63 347.985 217.968 347.425 215.942 345.739C213.67 343.482 213.042 341.442 213.12 338.381C213.421 336.048 214.507 334.262 216.361 332.711C219.739 330.499 223.542 330.132 227.198 332.091Z" fill="#112D4E"/>
<path id="Vector_50" d="M168.689 276.829C170.819 278.558 172.489 280.21 173.02 282.868C173.066 286.506 172.281 288.525 169.639 291.201C167.748 292.59 165.534 292.924 163.184 292.995C160.423 292.6 158.408 291.485 156.477 289.619C154.978 287.424 154.475 285.227 154.837 282.662C155.556 279.777 156.975 278.127 159.607 276.538C162.605 275.281 165.784 275.432 168.689 276.829Z" fill="#112D4E"/>
<path id="Vector_51" d="M226.868 552.312C229.058 553.517 230.352 555.32 231.143 557.56C231.468 560.512 231.454 562.876 229.544 565.316C227.446 567.568 225.424 568.397 222.285 568.689C219.691 568.604 217.384 567.802 215.554 566.038C213.445 563.486 212.866 561.201 213.259 557.982C214.093 555.371 215.801 553.578 218.177 552.074C220.914 551.213 224.209 551.191 226.868 552.312Z" fill="#112D4E"/>
<path id="Vector_52" d="M167.866 386.65C170.173 387.932 171.686 389.458 172.713 391.811C173.23 394.521 173.097 396.993 171.707 399.459C170.053 401.677 167.597 402.82 164.808 403.311C161.924 403.457 159.617 402.579 157.478 400.771C155.669 398.935 154.739 397.18 154.661 394.618C154.827 391.754 155.942 389.67 158.11 387.677C160.893 385.701 164.645 385.474 167.866 386.65Z" fill="#112D4E"/>
<path id="Vector_53" d="M226.868 221.5C229.058 222.706 230.352 224.509 231.143 226.748C231.468 229.701 231.452 232.062 229.545 234.505C227.861 236.307 226.084 237.552 223.511 237.813C220.58 237.921 218.495 237.233 216.054 235.662C213.966 233.801 213.216 231.832 213.119 229.174C213.163 226.691 213.995 224.833 215.816 223.036C218.882 220.461 223.03 219.883 226.868 221.5Z" fill="#112D4E"/>
<path id="Vector_54" d="M167.866 221.244C170.173 222.526 171.686 224.053 172.713 226.405C173.23 229.115 173.097 231.588 171.707 234.053C170.053 236.271 167.597 237.414 164.808 237.905C161.924 238.051 159.617 237.173 157.478 235.365C155.669 233.53 154.739 231.774 154.661 229.212C154.827 226.349 155.942 224.264 158.11 222.271C160.893 220.295 164.645 220.068 167.866 221.244Z" fill="#112D4E"/>
<path id="Vector_55" d="M226.365 166.25C228.598 167.451 230.172 169.218 231.143 171.472C231.452 174.191 231.526 176.767 229.802 179.067C228.028 181.013 226.398 182.259 223.646 182.593C220.474 182.732 218.345 182.332 215.942 180.333C214.003 178.407 213.22 176.718 213.092 174.083C213.153 171.902 213.625 170.255 215.048 168.518C218.291 165.691 222.137 164.422 226.365 166.25Z" fill="#112D4E"/>
<path id="Vector_56" d="M228.461 112.398C230.813 114.738 231.352 116.934 231.285 120.082C231.01 122.37 230.034 123.958 228.377 125.611C225.722 127.114 223.159 127.925 220.055 127.429C217.794 126.826 216.16 125.93 214.775 124.112C213.405 121.776 212.783 119.694 213.259 117.04C214.153 114.375 215.548 112.827 217.954 111.238C221.564 109.534 225.271 110.273 228.461 112.398Z" fill="#112D4E"/>
<path id="Vector_57" d="M227.198 828.309C229.021 829.576 230.426 831.064 231.143 833.096C231.568 838.433 231.568 838.433 229.802 840.691C227.529 842.883 225.577 844.073 222.285 844.225C219.656 844.166 217.641 843.476 215.703 841.777C213.587 839.524 213.045 837.539 213.119 834.599C213.421 832.266 214.507 830.48 216.361 828.929C219.739 826.717 223.542 826.349 227.198 828.309Z" fill="#112D4E"/>
<path id="Vector_58" d="M225.611 772.414C228.223 773.738 230.201 775.101 231.143 777.82C231.469 780.512 231.515 783.14 229.998 785.517C228.31 787.465 226.537 788.626 223.871 788.99C221.273 789.054 218.973 789.05 216.836 787.525C214.597 785.452 213.254 783.628 213.12 780.615C213.192 777.866 214.301 775.519 216.389 773.6C219.481 771.836 222.124 771.336 225.611 772.414Z" fill="#112D4E"/>
<path id="Vector_59" d="M227.198 662.903C229.021 664.171 230.426 665.658 231.143 667.69C231.568 673.027 231.568 673.027 229.802 675.285C227.618 677.347 225.716 678.776 222.537 678.819C219.78 678.763 217.739 678.159 215.704 676.371C213.585 674.122 213.045 672.133 213.12 669.193C213.421 666.86 214.507 665.074 216.361 663.523C219.739 661.311 223.542 660.944 227.198 662.903Z" fill="#112D4E"/>
<path id="Vector_60" d="M197.331 634.803C199.461 636.287 201.454 638.197 202.082 640.684C202.422 643.77 201.723 645.902 200.014 648.57C198.123 650.307 195.766 651.309 193.112 651.418C189.781 651.069 187.782 650.295 185.64 647.821C183.997 645.401 183.869 643.065 184.198 640.262C184.907 637.886 186.202 636.501 188.363 635.161C191.015 633.808 194.525 633.97 197.331 634.803Z" fill="#112D4E"/>
<path id="Vector_61" d="M168.996 607.772C170.945 609.406 172.608 611.199 173.02 613.68C173.047 616.495 172.821 618.672 170.785 620.853C168.114 623.274 166.014 623.536 162.394 623.502C159.763 623.289 158.504 622.286 156.561 620.616C154.891 618.537 154.537 615.932 154.811 613.39C155.516 610.555 157.054 608.928 159.607 607.35C162.71 605.976 166.051 606.132 168.996 607.772Z" fill="#112D4E"/>
<path id="Vector_62" d="M227.064 276.855C229.178 278.291 230.303 279.714 231.143 282.024C231.552 285.025 231.251 287.557 229.355 290.041C227.438 291.953 224.835 292.897 222.067 293.052C219.494 292.906 217.375 292.148 215.495 290.463C213.82 288.264 212.912 286.052 213.1 283.331C213.565 280.741 214.752 279.068 216.836 277.382C219.983 275.354 223.641 275.132 227.064 276.855Z" fill="#112D4E"/>
<path id="Vector_63" d="M167.543 166.066C169.806 167.257 171.515 168.803 172.573 171.05C173.329 174.223 173.014 176.617 171.2 179.372C169.903 181.022 168.416 181.992 166.313 182.443C163.109 182.809 160.476 182.562 157.819 180.755C155.792 178.946 154.792 176.489 154.628 173.877C154.783 171.449 155.586 169.449 157.371 167.674C160.656 165.445 163.718 164.922 167.543 166.066Z" fill="#112D4E"/>
<path id="Vector_64" d="M235.433 55.9355C237.638 57.4073 239.264 58.9057 240.156 61.3418C240.557 64.294 240.463 66.6572 238.558 69.0985C236.874 70.9011 235.097 72.1454 232.524 72.4066C229.612 72.5137 227.57 71.8021 225.094 70.3347C223.115 68.4666 222.173 66.5236 222.048 63.8735C222.167 61.4506 222.93 59.5092 224.713 57.7404C227.882 55.137 231.44 54.6337 235.433 55.9355Z" fill="#112D4E"/>
<path id="Vector_65" d="M226.545 882.911C228.885 884.267 230.459 885.832 231.143 888.372C231.574 891.273 231.479 893.688 229.606 896.099C227.548 898.197 225.598 899.191 222.593 899.474C219.923 899.271 217.475 898.663 215.523 896.85C213.433 894.31 212.869 891.988 213.259 888.794C214.093 886.183 215.801 884.39 218.177 882.886C220.831 882.052 223.92 881.945 226.545 882.911Z" fill="#112D4E"/>
<path id="Vector_66" d="M167.754 882.756C170.142 883.94 171.704 885.743 172.741 888.055C173.199 890.653 173.096 892.888 171.818 895.255C169.509 897.788 167.463 899.164 163.91 899.474C161.032 899.24 159.039 898.566 156.98 896.6C155.287 894.603 154.708 892.602 154.689 890.059C155.196 886.971 156.749 884.803 159.383 882.939C162.05 882.13 165.051 881.962 167.754 882.756Z" fill="#112D4E"/>
<path id="Vector_67" d="M199.399 856.725C201.354 858.612 202.128 860.567 202.222 863.16C202.178 865.643 201.346 867.501 199.525 869.298C196.983 871.433 194.899 871.695 191.517 871.663C188.817 871.359 187.026 870.186 185.343 868.205C183.915 865.935 183.816 863.517 184.198 860.945C184.936 858.415 186.449 857.015 188.669 855.514C192.336 853.56 196.129 854.604 199.399 856.725Z" fill="#112D4E"/>
<path id="Vector_68" d="M197.331 469.398C199.461 470.881 201.454 472.791 202.082 475.279C202.422 478.364 201.723 480.496 200.014 483.164C198.112 484.911 195.751 485.904 193.084 486.012C189.965 485.68 187.751 484.539 185.539 482.452C183.994 480.021 183.822 477.653 184.198 474.857C184.913 472.48 186.199 471.097 188.363 469.755C191.015 468.402 194.525 468.564 197.331 469.398Z" fill="#112D4E"/>
<path id="Vector_69" d="M198.136 414.768C200.103 416.198 201.642 418.095 202.082 420.425C202.416 423.179 202.007 425.318 200.293 427.598C198.594 429.329 196.676 430.414 194.175 430.678C189.829 430.696 189.829 430.696 187.774 429.286C185.394 427.044 184.144 425.489 184.03 422.244C184.053 419.686 184.647 418.117 186.433 416.205C189.718 413.26 194.136 412.623 198.136 414.768Z" fill="#112D4E"/>
<path id="Vector_70" d="M196.786 303.835C199.054 304.957 200.529 306.668 201.774 308.739C202.554 311.614 202.24 313.996 200.74 316.624C199.431 318.436 198.085 319.51 195.906 320.29C192.987 320.683 190.353 320.594 187.774 319.156C185.917 317.55 184.338 315.746 184.063 313.331C184.05 310.149 184.32 308.256 186.573 305.785C189.522 303.39 193.007 302.692 196.786 303.835Z" fill="#112D4E"/>
<path id="Vector_71" d="M199.059 194.803C201.048 196.622 202.175 199.04 202.361 201.642C202.176 204.242 201.052 206.679 199.043 208.48C196.945 209.854 194.795 210.435 192.245 210.292C189.495 209.771 187.137 208.846 185.455 206.642C183.991 204.292 183.793 201.995 184.198 199.321C184.995 196.826 186.395 195.266 188.669 193.836C192.152 192.445 195.951 192.739 199.059 194.803Z" fill="#112D4E"/>
<path id="Vector_72" d="M196.786 138.429C199.054 139.551 200.529 141.262 201.774 143.333C202.554 146.208 202.24 148.59 200.74 151.218C199.431 153.03 198.085 154.104 195.906 154.884C192.987 155.277 190.353 155.188 187.774 153.75C185.917 152.144 184.338 150.34 184.063 147.925C184.05 144.743 184.32 142.85 186.573 140.379C189.522 137.984 193.007 137.286 196.786 138.429Z" fill="#112D4E"/>
<path id="Vector_73" d="M168.27 56.1201C170.476 57.3361 171.735 58.783 172.741 61.0253C173.296 64.1722 172.977 66.8342 171.022 69.4891C169.465 71.1127 167.292 72.1507 164.981 72.4132C161.947 72.5094 159.76 71.8882 157.478 69.9589C155.669 68.1234 154.739 66.3676 154.661 63.806C154.806 61.3153 155.663 59.4445 157.371 57.5442C160.55 55.2043 164.499 54.4865 168.27 56.1201Z" fill="#112D4E"/>
<path id="Vector_74" d="M168.996 773.178C170.946 774.813 172.599 776.604 173.02 779.085C173.005 781.903 172.685 784.455 170.495 786.537C167.901 788.722 165.883 788.963 162.426 788.937C159.736 788.67 158.259 787.43 156.31 785.784C154.8 783.263 154.372 780.538 155.08 777.714C155.949 775.424 157.48 774.07 159.607 772.756C162.71 771.382 166.051 771.538 168.996 773.178Z" fill="#112D4E"/>
<path id="Vector_75" d="M198.168 745.638C200.071 746.938 201.507 748.645 202.082 750.815C202.427 753.707 202.127 756.019 200.293 758.41C198.249 760.487 196.189 761.389 193.223 761.522C190.495 761.457 188.503 760.74 186.526 758.951C184.315 756.611 184.038 754.772 184.074 751.664C184.305 749.29 185.431 747.829 187.299 746.252C190.676 743.976 194.501 743.659 198.168 745.638Z" fill="#112D4E"/>
<path id="Vector_76" d="M168.549 717.744C171.017 719.588 172.495 721.258 173.02 724.232C173.056 726.927 172.697 728.886 170.785 730.983C168.622 732.935 166.886 733.809 163.91 734.069C160.982 733.83 159.03 733.157 156.98 731.115C155.245 729.054 154.614 727.405 154.746 724.779C155.131 721.986 155.982 720.156 158.266 718.324C160.95 716.409 165.561 716.263 168.549 717.744Z" fill="#112D4E"/>
<path id="Vector_77" d="M227.064 442.261C229.178 443.697 230.303 445.12 231.143 447.43C231.55 450.417 231.264 452.981 229.355 455.447C228.237 456.449 228.237 456.449 227.12 457.135C226.718 457.383 226.718 457.383 226.309 457.636C223.592 458.588 220.828 458.694 218.177 457.557C215.724 456.014 214.059 454.384 213.259 451.649C212.833 448.878 213.319 446.361 215.048 444.054C218.565 441.149 222.742 440.085 227.064 442.261Z" fill="#112D4E"/>
<path id="Vector_78" d="M198.058 84.1274C200.29 85.5638 201.528 87.1158 202.082 89.6128C202.416 92.3642 202.01 94.5098 200.293 96.786C198.684 98.3856 196.921 99.6284 194.568 99.8666C189.782 99.8838 189.782 99.8838 187.774 98.4738C185.396 96.2291 184.144 94.6788 184.03 91.4325C184.053 88.8743 184.647 87.3053 186.433 85.3933C189.885 82.2989 193.907 82.018 198.058 84.1274Z" fill="#112D4E"/>
<path id="Vector_79" d="M168.996 938.585C170.946 940.219 172.599 942.01 173.02 944.492C173.05 947.324 172.54 949.364 170.784 951.665C168.096 954.012 166.024 954.412 162.41 954.358C159.735 954.063 158.253 952.831 156.31 951.19C154.942 948.906 154.388 946.171 154.884 943.569C155.675 941.26 157.392 939.315 159.603 938.092C162.766 936.855 166.03 936.932 168.996 938.585Z" fill="#112D4E"/>
<path id="Vector_80" d="M196.413 910.181C198.94 911.27 200.378 912.802 201.774 915.06C202.527 917.901 202.415 920.51 200.861 923.076C199.483 924.872 197.674 926.227 195.375 926.77C192.313 927.095 189.857 926.815 187.327 925.082C185.638 923.565 184.331 921.904 184.047 919.694C184.009 916.862 184.127 915.107 185.986 912.845C188.994 910.006 192.241 909.015 196.413 910.181Z" fill="#112D4E"/>
<path id="Vector_81" d="M228.014 608.194C229.724 609.656 231.01 611.388 231.294 613.568C231.332 616.342 231.272 618.641 229.355 620.853C227.246 622.852 225.323 623.548 222.341 623.622C219.251 623.466 217.474 622.856 215.383 620.695C213.381 618.321 212.91 616.259 213.259 613.258C214.155 610.588 215.549 609.024 217.982 607.456C221.431 605.786 224.785 606.33 228.014 608.194Z" fill="#112D4E"/>
<path id="Vector_82" d="M198.168 580.231C200.071 581.531 201.507 583.239 202.082 585.409C202.427 588.301 202.127 590.613 200.293 593.004C198.249 595.081 196.189 595.983 193.223 596.116C190.495 596.051 188.503 595.334 186.526 593.544C184.333 591.224 184.014 589.374 184.042 586.287C184.34 583.796 185.675 582.29 187.551 580.609C190.905 578.551 194.647 578.332 198.168 580.231Z" fill="#112D4E"/>
<path id="Vector_83" d="M167.866 552.056C170.173 553.339 171.686 554.865 172.713 557.217C173.211 559.823 173.102 562.064 171.818 564.443C169.63 566.844 167.596 568.397 164.162 568.663C161.171 568.562 159.055 567.773 156.98 565.709C155.289 563.704 154.562 562.021 154.778 559.452C155.287 556.505 156.341 554.381 158.908 552.549C161.602 551.086 164.984 551.004 167.866 552.056Z" fill="#112D4E"/>
<path id="Vector_84" d="M198.136 249.362C200.103 250.792 201.642 252.689 202.082 255.019C202.416 257.773 202.007 259.912 200.293 262.192C198.596 263.921 196.681 264.989 194.191 265.287C191.449 265.324 189.452 265.178 187.327 263.458C185.109 261.369 184.136 259.854 184.03 256.838C184.053 254.28 184.647 252.711 186.433 250.799C189.718 247.854 194.136 247.217 198.136 249.362Z" fill="#112D4E"/>
<path id="Vector_85" d="M212.693 959.75C214.948 961.367 217.076 963.406 217.746 966.077C218.143 969.078 217.697 971.746 215.833 974.248C213.449 976.227 211.228 977.275 208.089 977.567C205.15 977.338 202.534 976.42 200.555 974.276C198.543 971.441 198.228 968.983 198.611 965.623C199.343 962.9 201.035 961.194 203.537 959.752C206.507 958.64 209.688 958.868 212.693 959.75Z" fill="#112D4E"/>
<path id="Vector_86" d="M199.287 691.161C201.182 693.048 202.167 695.286 202.305 697.886C202.168 700.28 201.279 702.161 199.525 703.892C196.983 706.027 194.899 706.29 191.517 706.258C188.817 705.953 187.026 704.78 185.343 702.8C183.917 700.532 183.809 698.108 184.198 695.539C184.997 693.038 186.406 691.506 188.669 690.054C192.506 688.436 195.83 689.233 199.287 691.161Z" fill="#112D4E"/>
<path id="Vector_87" d="M207.21 28.8252C209.56 30.3862 210.772 32.7036 211.292 35.3358C211.446 38.0572 210.516 40.2351 208.6 42.2536C206.655 43.9609 204.795 44.8381 202.081 44.9122C199.442 44.7755 197.459 43.9664 195.446 42.3541C193.199 39.6355 192.859 37.2806 193.21 33.915C194.044 31.3315 195.487 29.737 198.015 28.456C201.096 27.1455 204.227 27.3355 207.21 28.8252Z" fill="#112D4E"/>
<path id="Vector_88" d="M197.359 800.209C199.466 801.713 201.455 803.608 202.082 806.09C202.454 808.893 202.022 811.341 200.293 813.685C198.147 815.654 195.864 816.592 192.879 816.71C189.868 816.513 187.618 815.271 185.539 813.264C183.991 810.829 183.83 808.469 184.198 805.668C184.889 803.137 186.459 801.554 188.801 800.211C191.577 799.178 194.551 799.39 197.359 800.209Z" fill="#112D4E"/>
<path id="Vector_89" d="M198.449 525.28C200.796 526.923 201.787 528.831 202.248 531.524C202.391 533.905 201.772 535.797 200.293 537.728C198.068 539.924 196.34 540.746 193.084 540.866C190.043 540.837 188.136 540.192 185.986 538.15C184.217 536.068 183.911 533.883 184.026 531.263C184.381 528.92 185.404 527.145 187.243 525.544C190.821 523.293 194.76 523.219 198.449 525.28Z" fill="#112D4E"/>
<path id="Vector_90" d="M199.09 360.283C200.81 361.753 201.91 363.803 202.188 365.984C202.277 368.467 201.849 370.291 200.293 372.322C198.068 374.518 196.34 375.34 193.084 375.46C190.043 375.432 188.136 374.786 185.986 372.744C184.217 370.662 183.911 368.477 184.026 365.858C184.381 363.515 185.404 361.739 187.243 360.138C191.034 357.753 195.362 357.838 199.09 360.283Z" fill="#112D4E"/>
<path id="Vector_91" d="M172.11 989.558C174.648 990.996 176.022 992.981 176.959 995.64C177.57 998.395 177.1 1000.94 175.657 1003.37C174.181 1005.42 172.424 1006.59 169.976 1007.38C166.605 1007.7 163.552 1007.65 160.838 1005.52C158.801 1003.37 157.538 1001.14 157.389 998.2C157.615 995.322 158.652 992.634 160.838 990.633C164.203 988.289 168.317 987.884 172.11 989.558Z" fill="#112D4E"/>
<path id="Vector_92" d="M234.238 989.07C236.812 990.369 239.024 992.592 239.941 995.271C240.259 998.737 240.259 1001.3 238.031 1004.1C235.776 1006.35 233.687 1007.38 230.479 1007.53C227.671 1007.46 225.518 1006.7 223.448 1004.83C221.188 1002.35 220.61 1000.16 220.689 996.927C221.011 994.358 222.171 992.391 224.151 990.683C227.194 988.63 230.634 987.959 234.238 989.07Z" fill="#112D4E"/>
<path id="Vector_93" d="M204.385 1019.77C206.343 1021.01 207.857 1022.84 208.578 1024.99C209.118 1027.85 208.982 1030.29 207.48 1032.85C206.057 1034.74 204.354 1036.18 202.046 1036.91C198.541 1037.22 195.318 1037.25 192.466 1035.08C190.018 1032.5 189.417 1030.21 189.459 1026.76C189.724 1024.15 190.868 1022.22 192.885 1020.47C196.618 1018.04 200.384 1017.91 204.385 1019.77Z" fill="#112D4E"/>
<path id="Vector_94" d="M227.214 1.30897C229.009 2.51489 230.313 4.13965 231.143 6.06584C231.452 8.78464 231.526 11.361 229.802 13.661C228.027 15.6076 226.393 16.874 223.63 17.1718C220.649 17.277 218.761 17.0848 216.389 15.3488C214.305 13.4295 213.238 11.6051 213.119 8.86128C213.193 6.0591 214.362 3.87175 216.389 1.8463C219.719 -0.353725 223.659 -0.57555 227.214 1.30897Z" fill="#112D4E"/>
<path id="Vector_95" d="M169.337 1.5908C171.314 2.92943 172.259 4.47249 172.851 6.68062C173.292 9.47849 172.796 11.5967 171.185 13.9659C169.926 15.5299 168.727 16.4293 166.761 17.0366C163.434 17.3953 160.572 17.2616 157.819 15.3488C155.792 13.5395 154.762 11.061 154.644 8.44096C154.854 5.64248 156.019 3.80803 158.238 1.95177C161.886 -0.57763 165.428 -0.457478 169.337 1.5908Z" fill="#112D4E"/>
</g>
<g id="cicles-E" class="circles-e">
<path id="Vector_96" d="M22.9613 194.337C24.9298 195.631 26.0589 197.173 26.8176 199.321C27.1264 202.279 27.0786 204.957 25.0291 207.338C22.9617 209.125 20.8201 210.234 17.9943 210.364C15.2278 210.166 12.6442 209.256 10.7219 207.338C8.8234 204.851 8.47481 202.325 8.93346 199.321C9.78835 196.737 11.1976 195.149 13.7381 193.862C16.8613 192.534 19.9922 192.727 22.9613 194.337Z" fill="#112D4E"/>
<path id="Vector_97" d="M14.5714 959.755C17.1749 961.133 18.7412 963.023 19.6933 965.658C20.0386 968.891 19.8599 971.567 17.7355 974.237C15.5162 976.549 12.9742 977.233 9.72101 977.566C6.9449 977.302 4.59858 976.603 2.62609 974.715C0.181782 971.778 -0.25458 969.326 0.115819 965.658C0.851484 962.971 2.58169 961.239 5.1268 959.822C8.13494 958.743 11.5381 958.733 14.5714 959.755Z" fill="#112D4E"/>
<path id="Vector_98" d="M51.1288 827.69C53.3579 829.142 54.9856 830.654 55.8793 833.096C56.1716 835.843 56.2847 838.36 54.538 840.691C52.8115 842.585 51.1701 843.883 48.4811 844.202C45.6725 844.312 43.3758 844.049 41.1249 842.379C38.7731 840.014 37.8412 838.093 37.8991 834.818C38.1811 832.239 39.6783 830.242 41.572 828.454C44.5248 826.782 47.8825 826.612 51.1288 827.69Z" fill="#112D4E"/>
<path id="Vector_99" d="M22.7099 524.911C24.7304 526.332 26.0196 527.873 26.8177 530.133C27.0464 532.777 27.1254 535.052 25.4764 537.306C23.7588 539.14 22.1733 540.51 19.5592 540.894C16.3878 540.944 14.0511 540.83 11.5166 538.919C9.51217 536.978 8.84046 535.15 8.71002 532.453C8.83479 529.619 9.75773 527.478 11.9795 525.544C15.2635 523.478 19.151 523.213 22.7099 524.911Z" fill="#112D4E"/>
<path id="Vector_100" d="M23.157 29.0886C25.076 30.4248 26.2137 31.7214 26.8177 33.9147C27.1966 36.4933 27.0926 38.8939 25.679 41.1769C23.9559 43.1791 21.6947 44.4922 18.9934 44.9119C16.2784 45.0373 13.9993 44.2096 11.7 42.9076C9.70034 40.9126 8.8275 38.9919 8.71002 36.2355C8.8275 33.479 9.70034 31.5584 11.7 29.5633C15.5607 27.3772 19.1935 26.848 23.157 29.0886Z" fill="#112D4E"/>
<path id="Vector_101" d="M22.7412 855.708C24.7513 856.972 26.0613 858.804 26.8175 860.945C27.0462 863.59 27.1252 865.864 25.4762 868.118C23.707 870.059 22.0745 871.328 19.3198 871.629C16.4064 871.733 13.9528 871.562 11.616 869.806C9.33072 867.434 8.76941 865.323 8.80939 862.15C9.05645 859.749 10.1238 857.965 12.0072 856.356C15.4935 854.119 19.0039 854.006 22.7412 855.708Z" fill="#112D4E"/>
<path id="Vector_102" d="M22.0391 634.777C24.0846 636.214 26.0009 637.951 26.8175 640.263C27.1283 643.239 27.0428 645.862 25.0291 648.28C22.5233 650.499 20.4883 651.379 17.018 651.324C14.2852 651.058 12.1685 649.645 10.2748 647.858C8.72515 645.42 8.60531 643.067 8.93345 640.263C9.84059 637.829 11.4492 636.329 13.656 634.856C16.4 633.962 19.2641 633.987 22.0391 634.777Z" fill="#112D4E"/>
<path id="Vector_103" d="M51.9183 166.685C53.7559 167.939 55.1613 169.439 55.8793 171.472C56.2578 174.736 56.2244 177.347 54.0106 179.99C51.8952 181.978 49.8993 182.539 46.9373 182.68C43.6923 182.572 41.8334 181.452 39.616 179.304C38.1405 177.109 37.6061 174.901 37.9952 172.316C38.7632 169.614 40.0592 168.045 42.4663 166.448C45.4494 164.908 49.0096 165.148 51.9183 166.685Z" fill="#112D4E"/>
<path id="Vector_104" d="M51.5759 56.0413C53.6489 57.22 54.9937 58.8017 55.8793 60.9201C56.2491 63.3316 56.1674 65.5257 55.4042 67.856C53.8113 69.8443 51.8032 71.7218 49.1727 72.3129C45.9032 72.6343 43.6441 71.9743 40.8175 70.3613C38.9764 68.5768 37.9147 66.3523 37.7996 63.8474C38.1721 60.6834 38.9932 58.8074 41.6541 56.7962C44.5886 54.926 48.2837 54.7277 51.5759 56.0413Z" fill="#112D4E"/>
<path id="Vector_105" d="M51.9183 1.27942C53.7559 2.53272 55.1613 4.0329 55.8793 6.06596C56.2578 9.32988 56.2244 11.9409 54.0106 14.5842C51.8952 16.572 49.8993 17.1333 46.9373 17.2741C43.6923 17.1658 41.8334 16.0463 39.616 13.8985C38.1405 11.7025 37.6061 9.49457 37.9952 6.90986C38.7632 4.20812 40.0592 2.63936 42.4663 1.04207C45.4494 -0.497561 49.0096 -0.257849 51.9183 1.27942Z" fill="#112D4E"/>
<path id="Vector_106" d="M22.9614 359.742C24.9299 361.037 26.0591 362.579 26.8177 364.727C27.0464 367.372 27.1254 369.646 25.4764 371.9C23.7588 373.734 22.1733 375.104 19.5592 375.488C16.3878 375.538 14.0511 375.424 11.5166 373.514C9.51217 371.572 8.84046 369.745 8.71002 367.048C8.82768 364.287 9.69252 362.35 11.728 360.375C15.4183 358.238 19.0388 357.616 22.9614 359.742Z" fill="#112D4E"/>
<path id="Vector_107" d="M51.0729 331.63C53.3099 332.829 55.0631 334.567 55.8793 336.878C56.2578 340.142 56.2228 342.751 54.0123 345.396C51.9717 347.309 50.0181 347.937 47.1608 348.06C44.3466 347.942 42.2769 347.319 40.325 345.357C38.505 343.175 37.8134 341.482 37.8747 338.656C38.1534 336.495 38.98 334.654 40.6516 333.136C43.781 330.863 47.3257 330.035 51.0729 331.63Z" fill="#112D4E"/>
<path id="Vector_108" d="M51.5759 221.447C53.6488 222.626 54.9937 224.207 55.8792 226.326C56.2491 228.737 56.1674 230.931 55.4042 233.262C53.8112 235.25 51.8032 237.127 49.1727 237.719C46.158 238.076 43.7025 237.561 41.1248 236.031C38.8714 234.189 38.0902 232.08 37.8554 229.332C37.9363 227.11 38.4398 225.14 40.0595 223.471C43.3828 220.698 47.3022 219.742 51.5759 221.447Z" fill="#112D4E"/>
<path id="Vector_109" d="M22.9036 84.0139C24.8067 85.314 26.2427 87.0215 26.8174 89.1911C27.1619 92.0764 26.8819 94.4123 25.029 96.7863C23.328 98.461 21.8826 99.6461 19.3477 99.8257C14.5486 99.894 14.5486 99.894 12.5102 98.4741C10.3258 96.4126 8.81111 94.6181 8.76569 91.6173C8.8245 89.0156 9.46488 87.0894 11.3592 85.1693C14.7084 82.3598 18.9965 81.9058 22.9036 84.0139Z" fill="#112D4E"/>
<path id="Vector_110" d="M20.5581 799.761C23.1482 800.591 24.7487 802.143 26.2866 804.245C27.2628 806.863 27.3176 809.599 26.091 812.156C24.8025 814.238 23.2694 815.427 20.8934 816.376C18.1776 816.803 15.5381 816.723 13.0412 815.532C11.0207 814.111 9.73153 812.57 8.93344 810.31C8.70468 807.666 8.62575 805.391 10.2747 803.137C13.387 799.813 15.9866 799.364 20.5581 799.761Z" fill="#112D4E"/>
<path id="Vector_111" d="M80.6654 745.198C83.0249 746.502 84.3022 748.303 85.1731 750.714C85.7416 753.214 85.3045 755.52 83.9628 757.724C82.5908 759.582 80.9572 760.648 78.6814 761.364C75.8791 761.58 73.4688 761.654 71.0806 760.098C69.1313 758.472 67.6712 756.98 67.2942 754.499C67.2647 751.343 67.3354 748.941 69.7393 746.595C72.934 744.244 76.8881 743.536 80.6654 745.198Z" fill="#112D4E"/>
<path id="Vector_112" d="M22.7412 690.302C24.7513 691.566 26.0613 693.398 26.8175 695.539C27.0463 698.183 27.1252 700.458 25.4762 702.712C23.7006 704.659 22.0624 705.945 19.2884 706.208C15.9353 706.298 13.8965 705.947 11.3086 703.846C9.20879 701.543 8.67878 699.694 8.77796 696.699C9.09591 694.325 10.1342 692.55 12.0072 690.95C15.4935 688.713 19.0039 688.6 22.7412 690.302Z" fill="#112D4E"/>
<path id="Vector_113" d="M50.8215 662.204C53.0993 663.502 55.0264 665.275 55.8793 667.689C56.175 670.777 56.2106 673.616 54.0909 676.129C51.5779 678.285 49.3398 678.82 45.9767 678.774C43.6026 678.562 41.9569 677.809 40.325 676.168C38.505 673.986 37.8134 672.293 37.8747 669.468C38.1534 667.306 38.98 665.465 40.6516 663.948C43.8604 661.617 46.9029 661.201 50.8215 662.204Z" fill="#112D4E"/>
<path id="Vector_114" d="M51.1655 552.005C53.3839 553.198 55.0411 554.846 55.8792 557.138C56.2564 559.938 56.4091 562.82 54.5379 565.155C52.2842 567.373 50.3156 568.356 47.049 568.715C44.6433 568.641 42.6126 567.732 40.6778 566.421C38.76 564.297 37.8388 562.139 37.9043 559.324C38.2074 556.255 39.5742 554.583 42.047 552.643C44.5037 551.03 48.4118 551.121 51.1655 552.005Z" fill="#112D4E"/>
<path id="Vector_115" d="M51.0729 497.036C53.3099 498.235 55.0631 499.973 55.8793 502.284C56.175 505.372 56.2106 508.211 54.0909 510.723C51.5779 512.879 49.3398 513.414 45.9767 513.368C43.6026 513.157 41.9569 512.403 40.325 510.763C38.505 508.581 37.8134 506.888 37.8747 504.062C38.1534 501.901 38.98 500.06 40.6516 498.542C43.781 496.269 47.3257 495.441 51.0729 497.036Z" fill="#112D4E"/>
<path id="Vector_116" d="M51.5758 386.853C53.6488 388.032 54.9936 389.613 55.8792 391.732C56.249 394.143 56.1673 396.337 55.4041 398.668C53.8111 400.656 51.8031 402.533 49.1726 403.125C46.1497 403.483 43.7211 402.945 41.1248 401.437C39.0899 399.567 38.0955 397.369 37.8274 394.712C37.9403 392.508 38.4526 390.533 40.0594 388.877C43.3827 386.104 47.3022 385.148 51.5758 386.853Z" fill="#112D4E"/>
<path id="Vector_117" d="M22.0671 303.992C24.1911 305.471 26.2055 307.389 26.8176 309.873C27.1542 312.732 26.9305 315.14 25.0292 317.468C22.5428 319.675 20.497 320.576 17.0477 320.509C14.5257 320.28 12.7015 319.519 11.0013 317.732C8.80154 315.192 8.63074 312.622 8.93349 309.451C9.73621 306.989 11.6966 305.454 13.8516 303.966C16.4662 303.143 19.4503 303.214 22.0671 303.992Z" fill="#112D4E"/>
<path id="Vector_118" d="M16.8182 1020.94C18.9539 1022.96 19.6904 1024.9 19.8318 1027.71C19.725 1030.49 18.8704 1032.55 16.8334 1034.56C14.1108 1036.86 11.9987 1037.11 8.38615 1037.06C5.47874 1036.87 4.06838 1035.7 2.17626 1033.74C0.143232 1031.49 -0.038826 1029.64 0.00546314 1026.75C0.249916 1024.3 1.11929 1022.61 3.01338 1020.93C7.57221 1017.53 12.0868 1017.84 16.8182 1020.94Z" fill="#112D4E"/>
<path id="Vector_119" d="M45.7958 989.692C48.1754 991.259 49.9132 992.89 50.8673 995.523C51.1764 998.458 51.3391 1001.26 49.4353 1003.71C47.0089 1006.08 44.9244 1007.36 41.4104 1007.53C38.5987 1007.46 36.4748 1006.71 34.3829 1004.9C32.2578 1002.66 31.5594 1000.34 31.6551 997.349C32.0161 994.579 33.5692 992.447 35.593 990.517C38.7453 988.714 42.3301 988.529 45.7958 989.692Z" fill="#112D4E"/>
<path id="Vector_120" d="M51.4256 938.083C53.4798 939.257 55.1229 941.085 55.8792 943.226C56.1813 946.203 56.3466 948.925 54.3563 951.388C52.1526 953.549 50.3483 954.326 47.1328 954.434C44.236 954.317 42.5986 953.836 40.4734 951.922C38.5213 949.905 37.7349 947.733 37.8292 945.004C38.2311 942.741 39.2639 940.628 41.1283 939.128C44.417 937.147 47.7743 936.667 51.4256 938.083Z" fill="#112D4E"/>
<path id="Vector_121" d="M51.1653 882.817C53.3863 884.011 55.0357 885.657 55.8791 887.949C56.2386 890.379 56.3783 892.892 55.1526 895.123C53.3599 897.26 51.6289 898.727 48.7255 899.342C45.6342 899.612 43.2044 898.966 40.7894 897.153C38.9506 894.984 37.6622 892.908 37.857 890.061C38.3519 887.028 39.55 885.414 42.0469 883.455C44.5036 881.842 48.4116 881.933 51.1653 882.817Z" fill="#112D4E"/>
<path id="Vector_122" d="M52.3024 773.178C54.2739 774.899 55.7382 776.43 56.0014 779.025C56.0876 781.693 56.1174 783.803 54.3562 785.982C52.1362 788.159 50.3452 788.918 47.1048 789.002C44.0078 788.87 42.2315 788.278 40.1188 786.127C38.4342 784.138 37.74 782.178 37.8292 779.598C38.2305 777.338 39.2659 775.234 41.1126 773.722C44.6009 771.593 48.6172 771.109 52.3024 773.178Z" fill="#112D4E"/>
<path id="Vector_123" d="M51.1655 717.411C53.3864 718.605 55.0359 720.251 55.8792 722.544C56.2388 724.973 56.3785 727.486 55.1527 729.717C52.8869 732.418 50.7338 733.715 47.049 734.121C44.6433 734.047 42.6126 733.138 40.6778 731.827C38.76 729.703 37.8388 727.545 37.9043 724.729C38.2074 721.66 39.5742 719.989 42.047 718.049C44.5037 716.436 48.4118 716.527 51.1655 717.411Z" fill="#112D4E"/>
<path id="Vector_124" d="M52.3024 607.773C54.2739 609.493 55.7382 611.024 56.0014 613.619C56.0876 616.287 56.1174 618.397 54.3562 620.576C52.1362 622.754 50.3452 623.512 47.1048 623.596C44.0078 623.464 42.2315 622.872 40.1188 620.721C38.4342 618.732 37.74 616.773 37.8292 614.192C38.2305 611.932 39.2659 609.828 41.1126 608.316C44.6009 606.187 48.6172 605.703 52.3024 607.773Z" fill="#112D4E"/>
<path id="Vector_125" d="M81.4899 911.047C83.7483 912.612 84.9231 914.432 85.3881 917.065C85.4763 920.057 84.7995 922.378 82.7054 924.66C79.971 926.673 77.6071 927.159 74.2105 926.77C71.4982 925.978 69.2098 924.759 67.855 922.339C66.9706 919.682 66.9092 916.82 67.9842 914.212C70.8883 909.669 76.5858 908.344 81.4899 911.047Z" fill="#112D4E"/>
<path id="Vector_126" d="M81.5055 580.265C83.6799 581.717 84.8383 583.836 85.3879 586.253C85.5632 589.225 84.7745 591.593 82.7053 593.848C79.8026 595.985 77.3459 596.224 73.7633 595.958C70.857 594.993 68.8742 593.048 67.5038 590.472C67.0983 587.803 66.9775 585 68.4539 582.613C71.5885 578.7 77.0497 577.836 81.5055 580.265Z" fill="#112D4E"/>
<path id="Vector_127" d="M22.0672 469.398C24.1113 470.822 25.8558 472.612 26.8177 474.857C27.2394 477.837 26.9421 480.422 25.0292 482.874C23.0042 484.978 20.8641 485.738 17.9035 485.959C14.8013 485.87 12.4323 484.488 10.2749 482.452C8.72143 480.008 8.61731 477.666 8.93356 474.857C9.73627 472.395 11.6967 470.86 13.8517 469.371C16.4663 468.549 19.4504 468.62 22.0672 469.398Z" fill="#112D4E"/>
<path id="Vector_128" d="M53.1966 277.804C55.6836 280.342 56.1071 282.297 56.0503 285.708C55.7354 288.246 54.4454 289.686 52.6097 291.465C50.073 292.913 47.6313 293.206 44.747 292.799C42.0923 292.161 40.4389 290.384 38.8893 288.353C37.756 285.959 37.6475 283.687 38.4422 281.18C39.5272 278.686 41.7219 277.125 44.1986 275.906C47.6077 275.391 50.4022 275.906 53.1966 277.804Z" fill="#112D4E"/>
<path id="Vector_129" d="M81.0568 194.125C83.7408 196.305 85.1988 198.235 85.5278 201.589C85.2739 204.369 84.5608 206.198 82.3701 208.129C80.1495 209.801 78.1657 210.411 75.3283 210.239C72.6494 209.865 70.6946 208.834 68.9012 206.89C67.0329 204.452 67.2398 201.806 67.504 198.899C68.2388 196.632 69.9418 195.152 71.975 193.835C75.0196 192.62 78.1225 192.715 81.0568 194.125Z" fill="#112D4E"/>
<path id="Vector_130" d="M53.1965 112.398C55.6836 114.936 56.1071 116.891 56.0503 120.302C55.7347 122.846 54.4484 124.297 52.5817 126.059C49.7415 127.718 46.9994 127.85 43.8074 127.167C41.2662 125.945 39.4696 124.173 38.3024 121.708C37.6506 118.967 37.8202 116.519 39.3363 114.086C43.2395 109.855 48.3606 109.177 53.1965 112.398Z" fill="#112D4E"/>
<path id="Vector_131" d="M52.0229 442.235C54.0923 443.955 55.7268 445.507 56.0014 448.213C56.0877 450.885 56.1075 452.981 54.3649 455.172C52.4419 457.031 50.2329 458.292 47.4453 458.452C44.5022 458.294 42.2538 457.598 40.2306 455.526C38.3363 453.221 37.7281 451.196 37.995 448.274C38.6214 445.312 40.3317 443.64 42.9132 441.944C45.7319 440.526 49.2335 440.918 52.0229 442.235Z" fill="#112D4E"/>
<path id="Vector_132" d="M81.5055 414.859C83.6767 416.309 84.844 418.431 85.388 420.847C85.5095 423.662 84.8885 425.745 83.1525 428.02C80.6756 430.238 78.343 430.759 75.0068 430.679C72.6193 430.435 71.0685 429.691 69.3709 428.099C67.4399 425.788 67.1685 423.725 67.3327 420.827C67.7063 418.107 68.9922 416.699 71.1942 415.048C74.3072 412.932 78.2421 413.08 81.5055 414.859Z" fill="#112D4E"/>
<path id="Vector_133" d="M22.0672 138.586C24.1911 140.065 26.2056 141.983 26.8177 144.467C27.1543 147.326 26.9306 149.734 25.0292 152.062C22.5269 154.283 20.4857 155.161 17.0181 155.106C14.2853 154.84 12.1686 153.427 10.2749 151.64C8.74392 149.232 8.48535 146.818 8.93356 144.045C9.93895 141.648 11.6653 140.04 13.8517 138.56C16.4663 137.737 19.4504 137.808 22.0672 138.586Z" fill="#112D4E"/>
<path id="Vector_134" d="M81.0568 28.7197C83.7409 30.8994 85.1988 32.8297 85.5278 36.183C85.2797 38.8996 84.5659 40.7807 82.4819 42.7233C80.3658 44.321 78.2456 44.8677 75.5518 44.8858C72.28 44.4067 69.9828 42.9415 68.007 40.4553C67.1499 37.9389 66.9722 35.1064 67.8131 32.5552C69.0675 30.3015 70.9787 28.8275 73.4281 27.8495C76.1805 27.4165 78.549 27.514 81.0568 28.7197Z" fill="#112D4E"/>
<path id="Vector_135" d="M76.9934 959.628C79.4933 960.852 81.1812 962.772 82.3162 965.17C83.0147 968.108 82.8367 970.742 81.207 973.349C78.8086 975.899 76.5001 977.249 72.8734 977.566C69.6353 977.303 67.6112 976.568 65.4092 974.255C63.3046 971.865 63.2638 969.728 63.2995 966.693C63.5812 964.08 64.6936 962.634 66.6532 960.854C69.5992 958.732 73.5179 958.592 76.9934 959.628Z" fill="#112D4E"/>
<path id="Vector_136" d="M22.9037 414.825C24.8069 416.126 26.2429 417.833 26.8176 420.003C27.1625 422.892 26.8657 425.211 25.0292 427.598C23.4259 429.188 21.6652 430.41 19.3356 430.708C16.1433 430.774 14.0457 430.463 11.6161 428.442C9.34413 426.185 8.71656 424.145 8.7938 421.084C9.09529 418.751 10.1813 416.965 12.0353 415.414C15.4402 413.184 19.2319 412.844 22.9037 414.825Z" fill="#112D4E"/>
<path id="Vector_137" d="M22.9036 249.42C24.8067 250.72 26.2428 252.427 26.8175 254.597C27.1624 257.487 26.8656 259.805 25.0291 262.192C23.4258 263.782 21.6651 265.004 19.3355 265.302C16.1431 265.369 14.0456 265.058 11.616 263.036C9.344 260.779 8.71644 258.739 8.79368 255.678C9.09517 253.345 10.1812 251.559 12.0352 250.008C15.44 247.778 19.2318 247.439 22.9036 249.42Z" fill="#112D4E"/>
<path id="Vector_138" d="M81.3642 855.881C83.3133 857.515 84.9758 859.308 85.3881 861.789C85.4149 864.604 85.1887 866.781 83.1526 868.962C80.5045 871.363 78.3896 871.673 74.7921 871.635C72.212 871.388 70.7847 870.409 69.0269 868.685C67.0341 866.219 67.1367 863.502 67.504 860.523C68.264 858.202 69.8969 856.812 71.975 855.459C75.1004 854.107 78.4061 854.234 81.3642 855.881Z" fill="#112D4E"/>
<path id="Vector_139" d="M81.3642 690.476C83.3133 692.11 84.9758 693.903 85.3881 696.383C85.4149 699.198 85.1887 701.375 83.1526 703.556C80.5045 705.957 78.3896 706.267 74.7921 706.23C72.212 705.982 70.7847 705.003 69.0269 703.279C67.0341 700.813 67.1367 698.096 67.504 695.117C68.264 692.797 69.8969 691.406 71.975 690.054C75.1004 688.702 78.4061 688.828 81.3642 690.476Z" fill="#112D4E"/>
<path id="Vector_140" d="M81.3641 525.07C83.8812 527.18 85.2147 529.21 85.5277 532.401C85.2675 535.25 84.5419 537.03 82.2583 538.968C79.8987 540.819 77.7885 540.855 74.792 540.824C72.2119 540.576 70.7846 539.597 69.0269 537.873C67.3056 535.743 67.1983 533.621 67.317 531.002C67.6606 528.629 68.7095 527.181 70.5777 525.571C73.9316 523.355 77.8062 523.088 81.3641 525.07Z" fill="#112D4E"/>
<path id="Vector_141" d="M22.9036 911.044C24.8067 912.344 26.2428 914.051 26.8175 916.221C27.1628 919.113 26.8628 921.425 25.0291 923.816C22.9851 925.893 20.9248 926.796 17.9593 926.928C15.33 926.869 13.3149 926.179 11.3767 924.48C9.26121 922.228 8.71949 920.243 8.79368 917.302C9.09517 914.969 10.1812 913.183 12.0352 911.632C15.44 909.402 19.2318 909.063 22.9036 911.044Z" fill="#112D4E"/>
<path id="Vector_142" d="M80.1187 800.056C82.5118 801.228 84.0737 803.044 85.1084 805.352C85.5671 807.95 85.4638 810.185 84.1862 812.552C81.8767 815.085 79.8313 816.461 76.2781 816.771C73.2596 816.526 71.3728 815.841 69.3201 813.686C67.3583 811.459 67.3202 809.467 67.3535 806.64C67.6161 804.205 68.6531 802.858 70.4798 801.199C73.226 799.222 76.8789 799.091 80.1187 800.056Z" fill="#112D4E"/>
<path id="Vector_143" d="M22.9036 745.637C24.8067 746.938 26.2428 748.645 26.8175 750.815C27.1628 753.707 26.8628 756.019 25.0291 758.41C22.9851 760.487 20.9248 761.389 17.9593 761.522C15.33 761.463 13.3149 760.773 11.3767 759.074C9.26121 756.821 8.71949 754.836 8.79368 751.896C9.09517 749.563 10.1812 747.777 12.0352 746.226C15.44 743.996 19.2318 743.656 22.9036 745.637Z" fill="#112D4E"/>
<path id="Vector_144" d="M22.9036 580.232C24.8067 581.532 26.2428 583.239 26.8175 585.409C27.1628 588.301 26.8628 590.613 25.0291 593.004C22.9851 595.081 20.9248 595.983 17.9593 596.116C15.33 596.057 13.3149 595.367 11.3767 593.668C9.26121 591.416 8.71949 589.431 8.79368 586.49C9.09517 584.157 10.1812 582.371 12.0352 580.82C15.44 578.59 19.2318 578.251 22.9036 580.232Z" fill="#112D4E"/>
<path id="Vector_145" d="M81.0567 359.531C83.7408 361.711 85.1987 363.641 85.5277 366.995C85.2675 369.843 84.5419 371.624 82.2583 373.561C79.8987 375.413 77.7885 375.449 74.792 375.417C72.2119 375.17 70.7846 374.191 69.0269 372.467C67.3056 370.337 67.1983 368.215 67.317 365.595C67.6711 363.15 68.6946 361.915 70.5498 360.164C73.8312 358.039 77.5188 357.831 81.0567 359.531Z" fill="#112D4E"/>
<path id="Vector_146" d="M80.213 303.941C82.5228 305.25 84.0446 306.734 85.0805 309.108C85.5983 311.818 85.4646 314.29 84.0745 316.756C82.4205 318.974 79.9649 320.117 77.1759 320.608C74.6804 320.734 72.6537 320.112 70.6335 318.734C68.2905 316.619 67.4361 314.999 67.3361 311.903C67.3609 309.277 67.8133 307.575 69.7393 305.653C72.7505 303.437 76.5342 302.593 80.213 303.941Z" fill="#112D4E"/>
<path id="Vector_147" d="M81.364 249.533C83.6093 251.363 84.9082 253 85.3321 255.783C85.5382 258.452 84.749 260.268 83.2922 262.508C81.2002 264.429 79.1475 265.246 76.2224 265.357C73.3651 265.233 71.4114 264.606 69.3709 262.693C67.4399 260.382 67.1685 258.319 67.3327 255.421C67.7063 252.701 68.9925 251.294 71.1925 249.642C74.3499 247.5 78.0588 247.794 81.364 249.533Z" fill="#112D4E"/>
<path id="Vector_148" d="M80.213 138.535C82.5228 139.844 84.0446 141.328 85.0805 143.702C85.5983 146.412 85.4646 148.884 84.0745 151.35C82.4205 153.568 79.9649 154.711 77.1759 155.202C74.6804 155.328 72.6537 154.706 70.6335 153.328C68.2905 151.213 67.4361 149.593 67.3361 146.497C67.3609 143.871 67.8133 142.169 69.7393 140.247C72.7505 138.031 76.5342 137.187 80.213 138.535Z" fill="#112D4E"/>
<path id="Vector_149" d="M77.9583 1019.84C80.3694 1021.46 82.1825 1023.58 82.7012 1026.38C82.7386 1029.45 82.1849 1031.66 80.3035 1034.15C77.4212 1036.68 75.1957 1037.13 71.3197 1037.06C68.5682 1036.76 67.0324 1035.71 65.1532 1033.85C63.0158 1031.18 63.1259 1028.24 63.5198 1025.01C64.3355 1022.5 66.0869 1021 68.3152 1019.53C71.6399 1018.05 74.7986 1018.16 77.9583 1019.84Z" fill="#112D4E"/>
<path id="Vector_150" d="M80.2341 634.759C82.5413 636.041 84.0542 637.568 85.0806 639.92C85.5785 642.526 85.4705 644.767 84.1864 647.146C81.9978 649.546 79.9641 651.1 76.5297 651.366C74.0505 651.282 72.0253 650.794 70.176 649.177C67.7014 646.584 67.3127 644.711 67.3537 641.234C67.6163 638.799 68.6532 637.452 70.4799 635.793C73.2481 633.8 77.0196 633.585 80.2341 634.759Z" fill="#112D4E"/>
<path id="Vector_151" d="M81.364 84.1275C83.6093 85.9575 84.9082 87.5946 85.3321 90.3777C85.5387 93.1118 84.7591 95.1544 83.0407 97.34C80.9204 99.2955 79.1387 99.8076 76.2503 99.9244C73.37 99.8276 71.4275 99.2157 69.3709 97.2872C67.4399 94.9763 67.1685 92.9131 67.3327 90.0151C67.7063 87.2952 68.9925 85.8887 71.1925 84.2363C74.3499 82.0946 78.0588 82.3879 81.364 84.1275Z" fill="#112D4E"/>
<path id="Vector_152" d="M80.234 469.353C82.5412 470.635 84.0541 472.161 85.0805 474.514C85.5785 477.12 85.4704 479.361 84.1863 481.74C81.8767 484.273 79.8313 485.649 76.2782 485.959C73.2597 485.714 71.3728 485.029 69.3202 482.874C67.3583 480.647 67.3203 478.655 67.3536 475.827C67.6162 473.392 68.6531 472.045 70.4798 470.387C73.248 468.394 77.0195 468.179 80.234 469.353Z" fill="#112D4E"/>
</g>
</g>
</svg>
