<svg width="1920" height="768" viewBox="0 0 1920 768" fill="none" xmlns="http://www.w3.org/2000/svg">
<g id="lines-projetos">
<path id="Line 1-p" class="lines-1" d="M-2.13333 144.9C-2.13333 146.078 -1.17821 147.033 0 147.033C1.17821 147.033 2.13333 146.078 2.13333 144.9C2.13333 143.722 1.17821 142.767 0 142.767C-1.17821 142.767 -2.13333 143.722 -2.13333 144.9ZM1917.87 144.9C1917.87 146.078 1918.82 147.033 1920 147.033C1921.18 147.033 1922.13 146.078 1922.13 144.9C1922.13 143.722 1921.18 142.767 1920 142.767C1918.82 142.767 1917.87 143.722 1917.87 144.9ZM0 145.3H1920V144.5H0V145.3Z" fill="url(#paint0_linear_82_2342)"/>
<path id="Line 9" class="lines-2" d="M-2.13333 3C-2.13333 4.17821 -1.17821 5.13333 0 5.13333C1.17821 5.13333 2.13333 4.17821 2.13333 3C2.13333 1.82179 1.17821 0.866667 0 0.866667C-1.17821 0.866667 -2.13333 1.82179 -2.13333 3ZM1917.87 3C1917.87 4.17821 1918.82 5.13333 1920 5.13333C1921.18 5.13333 1922.13 4.17821 1922.13 3C1922.13 1.82179 1921.18 0.866667 1920 0.866667C1918.82 0.866667 1917.87 1.82179 1917.87 3ZM0 3.4H1920V2.6H0V3.4Z" fill="url(#paint1_linear_82_2342)"/>
<path id="Line 8" class="lines-center" d="M0 269H1920M0 449H1920M0 622H1920" stroke="url(#paint2_linear_82_2342)" stroke-width="0.8"/>
<path id="Line 6-p" class="lines-6" d="M-2.13331 764.9C-2.13331 766.078 -1.17818 767.033 2.47955e-05 767.033C1.17823 767.033 2.13336 766.078 2.13336 764.9C2.13336 763.722 1.17823 762.767 2.47955e-05 762.767C-1.17818 762.767 -2.13331 763.722 -2.13331 764.9ZM1917.87 764.9C1917.87 766.078 1918.82 767.033 1920 767.033C1921.18 767.033 1922.13 766.078 1922.13 764.9C1922.13 763.722 1921.18 762.767 1920 762.767C1918.82 762.767 1917.87 763.722 1917.87 764.9ZM2.47955e-05 765.3H1920V764.5H2.47955e-05V765.3Z" fill="url(#paint3_linear_82_2342)"/>
</g>
<defs>
<linearGradient id="paint0_linear_82_2342" x1="0" y1="145.4" x2="1920" y2="145.4" gradientUnits="userSpaceOnUse">
<stop stop-color="#0A192F"/>
<stop offset="0.5" stop-color="#64FFDA"/>
<stop offset="1" stop-color="#E6F1FF"/>
</linearGradient>
<linearGradient id="paint1_linear_82_2342" x1="0" y1="3.5" x2="1920" y2="3.5" gradientUnits="userSpaceOnUse">
<stop stop-color="#0A192F"/>
<stop offset="0.5" stop-color="#64FFDA"/>
<stop offset="1" stop-color="#E6F1FF"/>
</linearGradient>
<linearGradient id="paint2_linear_82_2342" x1="0" y1="445.5" x2="1920" y2="445.5" gradientUnits="userSpaceOnUse">
<stop stop-color="#0A192F"/>
<stop offset="0.5" stop-color="#64FFDA"/>
<stop offset="1" stop-color="#E6F1FF"/>
</linearGradient>
<linearGradient id="paint3_linear_82_2342" x1="2.47955e-05" y1="765.4" x2="1920" y2="765.4" gradientUnits="userSpaceOnUse">
<stop stop-color="#0A192F"/>
<stop offset="0.5" stop-color="#64FFDA"/>
<stop offset="1" stop-color="#E6F1FF"/>
</linearGradient>
</defs>
</svg>
