<svg width="1926" height="711" viewBox="0 0 1926 711" fill="none" xmlns="http://www.w3.org/2000/svg">
<g id="lines-home">
<path id="Line-1-home" d="M0.866667 3C0.866667 4.17821 1.82179 5.13333 3 5.13333C4.17821 5.13333 5.13333 4.17821 5.13333 3C5.13333 1.82179 4.17821 0.866667 3 0.866667C1.82179 0.866667 0.866667 1.82179 0.866667 3ZM1920.87 3C1920.87 4.17821 1921.82 5.13333 1923 5.13333C1924.18 5.13333 1925.13 4.17821 1925.13 3C1925.13 1.82179 1924.18 0.866667 1923 0.866667C1921.82 0.866667 1920.87 1.82179 1920.87 3ZM3 3.4H1923V2.6H3V3.4Z" fill="url(#paint0_linear_1_3)"/>
<path id="Line-2-home" d="M0.866667 708C0.866667 709.178 1.82179 710.133 3 710.133C4.17821 710.133 5.13333 709.178 5.13333 708C5.13333 706.822 4.17821 705.867 3 705.867C1.82179 705.867 0.866667 706.822 0.866667 708ZM1920.87 708C1920.87 709.178 1921.82 710.133 1923 710.133C1924.18 710.133 1925.13 709.178 1925.13 708C1925.13 706.822 1924.18 705.867 1923 705.867C1921.82 705.867 1920.87 706.822 1920.87 708ZM3 708.4H1923V707.6H3V708.4Z" fill="url(#paint1_linear_1_3)"/>
</g>
<defs>
<linearGradient id="paint0_linear_1_3" x1="3" y1="3.5" x2="1923" y2="3.5" gradientUnits="userSpaceOnUse">
<stop stop-color="#0A192F"/>
<stop offset="0.5" stop-color="#64FFDA"/>
<stop offset="1" stop-color="#E6F1FF"/>
</linearGradient>
<linearGradient id="paint1_linear_1_3" x1="3" y1="708.5" x2="1923" y2="708.5" gradientUnits="userSpaceOnUse">
<stop stop-color="#0A192F"/>
<stop offset="0.5" stop-color="#64FFDA"/>
<stop offset="1" stop-color="#E6F1FF"/>
</linearGradient>
</defs>
</svg>
