<svg width="130" height="130" viewBox="0 0 130 130" fill="none" xmlns="http://www.w3.org/2000/svg">
<g id="Mouse">
<path id="Vector" d="M16.3693 71.5542C16.1468 70.5212 16.2314 69.4457 16.6125 68.4601C16.9936 67.4746 17.6547 66.622 18.5143 66.0075L94.3476 11.8408C95.2009 11.2272 96.2145 10.8754 97.2645 10.8284C98.3145 10.7813 99.3555 11.0411 100.26 11.5759C101.165 12.1107 101.895 12.8975 102.36 13.8401C102.825 14.7827 103.005 15.8403 102.879 16.8838L92.0455 108.967C91.9208 110.023 91.4882 111.018 90.8017 111.83C90.1152 112.642 89.205 113.233 88.1846 113.531C87.1642 113.829 86.0787 113.82 85.0633 113.506C84.0479 113.191 83.1475 112.585 82.4743 111.762L62.9093 87.8421L44.6172 117.417L35.4034 111.719L53.5872 82.3171L20.6051 75.7196C19.5686 75.5167 18.6145 75.0137 17.8614 74.2732C17.1084 73.5326 16.5895 72.5871 16.3693 71.5542Z" fill="#E6F1FF"/>
</g>
</svg>
