<svg width="348" height="297" viewBox="0 0 348 297" fill="none" xmlns="http://www.w3.org/2000/svg">
<g id="Persona" clip-path="url(#clip0_58_3)">
<path id="Vector" d="M271.532 290.692L266.568 290.692L264.207 271.536L271.533 271.536L271.532 290.692Z" fill="#FFB6B6"/>
<path id="Vector_2" d="M271.707 295.873L256.442 295.873V295.679C256.442 294.103 257.068 292.591 258.182 291.476C259.297 290.362 260.808 289.735 262.384 289.735L265.172 287.619L270.375 289.736L271.707 289.736L271.707 295.873Z" fill="#2F2E41"/>
<path id="Vector_3" d="M322.917 276.701L318.995 279.745L305.389 266.061L311.177 261.567L322.917 276.701Z" fill="#FFB6B6"/>
<path id="Vector_4" d="M326.23 280.686L314.17 290.05L314.052 289.897C313.086 288.652 312.654 287.073 312.851 285.509C313.048 283.945 313.858 282.523 315.103 281.556L316.009 278.174L321.416 276.655L322.469 275.837L326.23 280.686Z" fill="#2F2E41"/>
<path id="Vector_5" d="M301.444 184.017C301.444 184.017 301.105 189.203 300.678 196.617C300.608 197.833 301.021 199.154 300.947 200.477C300.898 201.355 300.363 202.208 300.314 203.123C300.261 204.089 301 204.943 300.947 205.942C300.896 206.918 300.053 208.037 300.002 209.036C299.455 219.785 297.471 232.652 299.458 236.25C300.437 238.022 315.349 262.582 315.349 262.582C315.349 262.582 308.397 273.016 306.41 269.538C303.786 264.944 283.566 243.454 283.566 239.35C283.566 235.251 278.888 204.531 278.888 204.531L275.626 222.711L274.13 226.313L274.6 228.427L273.634 231.281L273.581 234.105L272.64 239.35C272.64 239.35 275.471 280.21 273.877 281.348C272.278 282.491 264.536 284.542 263.622 282.491C262.713 280.439 259.232 239.847 259.232 239.847C259.232 239.847 258.278 221.245 257.245 203.955C257.186 202.951 256.481 201.739 256.426 200.75C256.362 199.603 256.808 198.112 256.749 196.999C256.684 195.722 256.118 194.823 256.064 193.601C255.641 184.156 255.577 176.713 256.332 175.58C258.611 172.162 260.662 169.429 260.662 169.429C260.662 169.429 293.24 161.45 301.444 171.705L301.444 184.017Z" fill="#2F2E41"/>
<path id="Vector_6" d="M272.144 86.2035L279.999 85.7641L285.919 88.9969L302.38 182.262C302.38 182.262 285.553 190.043 275.124 187.062C264.695 184.081 253.712 184.249 253.712 184.249L261.715 95.1466L268.171 89.1846L272.144 86.2035Z" fill="#E6E6E6"/>
<path id="Vector_7" d="M285.249 88.1808L297.407 93.1484C299.274 93.2394 301.055 93.9602 302.461 95.1932C303.866 96.4262 304.813 98.0989 305.146 99.9389L304.34 123.962L299.954 135.391L303.082 161.425L301.444 164.704L302.859 168.051C300.782 171.425 301.205 175.844 302.438 180.603H300.948L297.968 180.106C297.968 180.106 291.408 182.385 290.064 174.201C286.546 152.78 284.559 162.22 284.559 162.22L282.828 95.7566L285.249 88.1808Z" fill="#3F3D56"/>
<path id="Vector_8" d="M268.668 88.1909L257.31 100.104C255.443 100.195 253.662 100.916 252.256 102.149C250.851 103.382 249.905 105.055 249.571 106.895L254.266 143.837L252.063 158.012L253.273 161.226L252.396 164.86L253.769 168.182L252.776 172.654L254.266 179.113L261.715 177.125L261.658 171.828L263.645 99.7861L268.668 88.1909Z" fill="#3F3D56"/>
<path id="Vector_9" d="M230.79 149.43L215.318 160.662C214.725 160.693 214.151 160.879 213.653 161.203C213.155 161.526 212.751 161.975 212.482 162.504C212.213 163.033 212.088 163.624 212.119 164.217C212.15 164.81 212.337 165.384 212.661 165.881C212.985 166.379 213.434 166.783 213.963 167.051C214.493 167.32 215.083 167.445 215.676 167.413C216.268 167.38 216.842 167.193 217.339 166.868C217.836 166.544 218.239 166.094 218.507 165.564L239.546 154.327L230.79 149.43Z" fill="#FFB6B6"/>
<path id="Vector_10" d="M252.279 102.102C249.339 103.459 242.074 138.199 239.942 138.935C237.81 139.672 238.624 139.561 238.325 140.176C238.026 140.791 237.954 143.544 235.907 143.867C233.86 144.19 223.047 154.053 223.047 154.053L225.788 163.195C225.788 163.195 246.597 151.301 252.334 144.715C258.072 138.129 261.161 104.258 261.161 104.258L261.748 100.879C261.748 100.879 255.22 100.745 252.279 102.102Z" fill="#3F3D56"/>
<path id="Vector_11" d="M298.942 144.843L285.154 158.09C284.571 158.201 284.028 158.465 283.579 158.853C283.13 159.242 282.792 159.742 282.597 160.303C282.403 160.864 282.36 161.466 282.472 162.049C282.585 162.632 282.848 163.175 283.237 163.624C283.626 164.072 284.126 164.411 284.687 164.604C285.248 164.798 285.85 164.841 286.433 164.727C287.016 164.614 287.558 164.35 288.006 163.96C288.454 163.571 288.791 163.07 288.984 162.508L308.287 148.495L298.942 144.843Z" fill="#FFB6B6"/>
<path id="Vector_12" d="M300.948 105.083C298.221 106.831 308.583 132.171 306.572 133.193C304.561 134.215 305.352 133.994 305.14 134.644C304.928 135.294 305.233 138.031 303.25 138.632C301.267 139.232 291.906 150.484 291.906 150.484L295.873 159.164C295.873 159.164 314.857 144.531 319.639 137.22C324.421 129.91 321.309 127.441 321.309 127.441C315.376 114.835 309.827 94.2768 301.444 95.6435C301.444 95.6435 303.675 103.336 300.948 105.083Z" fill="#3F3D56"/>
<path id="Vector_13" d="M273.829 84.2364C281.181 84.2364 287.141 78.2735 287.141 70.9178C287.141 63.5622 281.181 57.5992 273.829 57.5992C266.476 57.5992 260.516 63.5622 260.516 70.9178C260.516 78.2735 266.476 84.2364 273.829 84.2364Z" fill="#FFB6B6"/>
<path id="Vector_14" d="M287.309 79.4997C287.309 79.4997 284.377 80.304 282.671 80.7517C282.759 79.4815 283.309 78.2924 283.588 77.0497C283.868 75.8071 283.807 74.3456 282.884 73.4682C281.961 72.5908 280.038 72.9327 279.89 74.1952C279.109 72.5245 278.326 70.8509 277.542 69.1741C275.306 73.7784 270.735 69.8548 265.751 71.0181C263.208 71.6174 260.022 71.36 258.679 69.1185C259.433 68.4847 260.069 67.7213 260.557 66.8643C259.782 67.0917 258.976 67.1939 258.169 67.1669C258.187 66.3652 258.398 65.5796 258.783 64.8762C259.168 64.1729 259.717 63.5724 260.382 63.1252C261.099 62.6563 259.325 60.9879 259.95 60.4006C261.233 59.202 262.095 60.0159 262.853 58.4359C263.341 57.4589 264.094 56.6388 265.026 56.0689C265.958 55.499 267.031 55.2022 268.123 55.2123C270.301 55.2634 274.205 55.2423 275.05 57.2504C277.744 55.4861 281.494 55.9846 284.127 57.8353C286.316 59.3677 288.807 63.9996 289.357 66.6143C289.906 69.229 288.695 77.2208 287.309 79.4997Z" fill="#2F2E41"/>
<path id="Vector_15" d="M122.415 50.1825H37.1721C35.639 50.2023 34.1553 49.6402 33.0197 48.6095C31.8841 47.5788 31.181 46.156 31.0518 44.6275C30.9965 43.8123 31.1092 42.9944 31.3829 42.2245C31.6567 41.4546 32.0856 40.7492 32.6431 40.152C33.2006 39.5548 33.8747 39.0786 34.6238 38.7529C35.3728 38.4271 36.1808 38.2588 36.9975 38.2584H122.415C123.995 38.2584 125.511 38.8865 126.629 40.0046C127.746 41.1227 128.374 42.6392 128.374 44.2205C128.374 45.8017 127.746 47.3182 126.629 48.4363C125.511 49.5544 123.995 50.1825 122.415 50.1825Z" fill="url(#paint0_linear_58_3)"/>
<path id="Vector_16" d="M171.449 59.8709H31.2867C31.1549 59.8709 31.0286 59.8186 30.9355 59.7254C30.8424 59.6323 30.79 59.5059 30.79 59.3741C30.79 59.2423 30.8424 59.116 30.9355 59.0228C31.0286 58.9296 31.1549 58.8773 31.2867 58.8773H171.449C171.581 58.8773 171.707 58.9296 171.8 59.0228C171.893 59.116 171.945 59.2423 171.945 59.3741C171.945 59.5059 171.893 59.6323 171.8 59.7254C171.707 59.8186 171.581 59.8709 171.449 59.8709Z" fill="#CBD7E3"/>
<path id="Vector_17" d="M165.62 50.4309H36.9977C35.3513 50.4309 33.7724 49.7766 32.6082 48.6119C31.4441 47.4472 30.79 45.8676 30.79 44.2204C30.79 42.5733 31.4441 40.9936 32.6082 39.8289C33.7724 38.6642 35.3513 38.0099 36.9977 38.0099H165.62C167.267 38.0099 168.846 38.6642 170.01 39.8289C171.174 40.9936 171.828 42.5733 171.828 44.2204C171.828 45.8676 171.174 47.4472 170.01 48.6119C168.846 49.7766 167.267 50.4309 165.62 50.4309ZM36.9977 39.0036C35.6147 39.0036 34.2884 39.5532 33.3105 40.5316C32.3326 41.5099 31.7833 42.8368 31.7833 44.2204C31.7833 45.604 32.3326 46.9309 33.3105 47.9093C34.2884 48.8876 35.6147 49.4373 36.9977 49.4373H165.62C167.003 49.4373 168.33 48.8876 169.308 47.9093C170.286 46.9309 170.835 45.604 170.835 44.2204C170.835 42.8368 170.286 41.5099 169.308 40.5316C168.33 39.5532 167.003 39.0036 165.62 39.0036H36.9977Z" fill="#3F3D56"/>
<path id="Vector_18" d="M104.731 96.9995H39.5113C37.384 97.0193 35.3253 96.4537 33.7496 95.4165C32.1739 94.3793 31.1983 92.9476 31.019 91.4094C30.9423 90.589 31.0987 89.7659 31.4785 88.9912C31.8583 88.2164 32.4535 87.5066 33.227 86.9056C34.0005 86.3047 34.936 85.8254 35.9753 85.4976C37.0147 85.1698 38.1357 85.0004 39.269 85H104.731C106.924 85 109.027 85.6321 110.578 86.7573C112.129 87.8825 113 89.4085 113 90.9997C113 92.591 112.129 94.117 110.578 95.2422C109.027 96.3674 106.924 96.9995 104.731 96.9995Z" fill="url(#paint1_linear_58_3)"/>
<path id="Vector_19" d="M171.449 106.574H31.2867C31.1549 106.574 31.0286 106.522 30.9355 106.428C30.8424 106.335 30.79 106.209 30.79 106.077C30.79 105.945 30.8424 105.819 30.9355 105.726C31.0286 105.633 31.1549 105.58 31.2867 105.58H171.449C171.581 105.58 171.707 105.633 171.8 105.726C171.893 105.819 171.945 105.945 171.945 106.077C171.945 106.209 171.893 106.335 171.8 106.428C171.707 106.522 171.581 106.574 171.449 106.574Z" fill="#CBD7E3"/>
<path id="Vector_20" d="M165.62 97.134H36.9977C35.3513 97.134 33.7724 96.4797 32.6082 95.315C31.4441 94.1503 30.79 92.5706 30.79 90.9235C30.79 89.2764 31.4441 87.6967 32.6082 86.532C33.7724 85.3673 35.3513 84.713 36.9977 84.713H165.62C167.267 84.713 168.846 85.3673 170.01 86.532C171.174 87.6967 171.828 89.2764 171.828 90.9235C171.828 92.5706 171.174 94.1503 170.01 95.315C168.846 96.4797 167.267 97.134 165.62 97.134ZM36.9977 85.7067C35.6147 85.7067 34.2884 86.2563 33.3105 87.2346C32.3326 88.213 31.7833 89.5399 31.7833 90.9235C31.7833 92.3071 32.3326 93.634 33.3105 94.6124C34.2884 95.5907 35.6147 96.1403 36.9977 96.1403H165.62C167.003 96.1403 168.33 95.5907 169.308 94.6124C170.286 93.634 170.835 92.3071 170.835 90.9235C170.835 89.5399 170.286 88.213 169.308 87.2346C168.33 86.2563 167.003 85.7067 165.62 85.7067H36.9977Z" fill="#3F3D56"/>
<path id="Vector_21" d="M147.246 143.589H37.1721C35.639 143.608 34.1553 143.046 33.0197 142.016C31.8841 140.985 31.181 139.562 31.0518 138.034C30.9965 137.218 31.1092 136.4 31.3829 135.631C31.6567 134.861 32.0856 134.155 32.6431 133.558C33.2006 132.961 33.8747 132.485 34.6238 132.159C35.3728 131.833 36.1808 131.665 36.9975 131.664H147.246C148.826 131.664 150.342 132.293 151.46 133.411C152.577 134.529 153.205 136.045 153.205 137.627C153.205 139.208 152.577 140.724 151.46 141.842C150.342 142.961 148.826 143.589 147.246 143.589Z" fill="url(#paint2_linear_58_3)"/>
<path id="Vector_22" d="M171.449 153.277H31.2867C31.1549 153.277 31.0286 153.225 30.9355 153.132C30.8424 153.038 30.79 152.912 30.79 152.78C30.79 152.648 30.8424 152.522 30.9355 152.429C31.0286 152.336 31.1549 152.283 31.2867 152.283H171.449C171.581 152.283 171.707 152.336 171.8 152.429C171.893 152.522 171.945 152.648 171.945 152.78C171.945 152.912 171.893 153.038 171.8 153.132C171.707 153.225 171.581 153.277 171.449 153.277Z" fill="#CBD7E3"/>
<path id="Vector_23" d="M165.62 143.837H36.9977C35.3513 143.837 33.7724 143.183 32.6082 142.018C31.4441 140.853 30.79 139.274 30.79 137.627C30.79 135.979 31.4441 134.4 32.6082 133.235C33.7724 132.07 35.3513 131.416 36.9977 131.416H165.62C167.267 131.416 168.846 132.07 170.01 133.235C171.174 134.4 171.828 135.979 171.828 137.627C171.828 139.274 171.174 140.853 170.01 142.018C168.846 143.183 167.267 143.837 165.62 143.837ZM36.9977 132.41C35.6147 132.41 34.2884 132.959 33.3105 133.938C32.3326 134.916 31.7833 136.243 31.7833 137.627C31.7833 139.01 32.3326 140.337 33.3105 141.315C34.2884 142.294 35.6147 142.843 36.9977 142.843H165.62C167.003 142.843 168.33 142.294 169.308 141.315C170.286 140.337 170.835 139.01 170.835 137.627C170.835 136.243 170.286 134.916 169.308 133.938C168.33 132.959 167.003 132.41 165.62 132.41H36.9977Z" fill="#3F3D56"/>
<path id="Vector_24" d="M114.327 44.1225H113.334V5.84435H185.173V6.83803H114.327V44.1225Z" fill="#E6F1FF"/>
<path id="Vector_25" d="M188.243 11.8704C191.519 11.8704 194.176 9.21314 194.176 5.93521C194.176 2.65729 191.519 0 188.243 0C184.967 0 182.311 2.65729 182.311 5.93521C182.311 9.21314 184.967 11.8704 188.243 11.8704Z" fill="#E6F1FF"/>
<path id="Vector_26" d="M79.8483 90.8255H80.8415V68.9432H9.00293V69.9369H79.8483V90.8255Z" fill="#E6F1FF"/>
<path id="Vector_27" d="M5.93249 74.9692C9.20891 74.9692 11.865 72.312 11.865 69.034C11.865 65.7561 9.20891 63.0988 5.93249 63.0988C2.65607 63.0988 0 65.7561 0 69.034C0 72.312 2.65607 74.9692 5.93249 74.9692Z" fill="#E6F1FF"/>
<path id="Vector_28" d="M147.104 139.215H146.11V166.563H207.023V165.569H147.104V139.215Z" fill="#E6F1FF"/>
<path id="Vector_29" d="M210.094 172.407C213.371 172.407 216.027 169.75 216.027 166.472C216.027 163.194 213.371 160.537 210.094 160.537C206.818 160.537 204.162 163.194 204.162 166.472C204.162 169.75 206.818 172.407 210.094 172.407Z" fill="#E6F1FF"/>
<path id="Vector_30" d="M347.409 296.847L212.454 297C212.377 297 212.299 296.985 212.228 296.956C212.156 296.926 212.09 296.882 212.035 296.827C211.98 296.772 211.936 296.707 211.906 296.635C211.877 296.563 211.861 296.486 211.861 296.408C211.861 296.331 211.877 296.254 211.906 296.182C211.936 296.11 211.98 296.044 212.035 295.99C212.09 295.935 212.156 295.891 212.228 295.861C212.299 295.832 212.377 295.817 212.454 295.817L347.409 295.664C347.566 295.664 347.716 295.727 347.827 295.837C347.938 295.948 348 296.099 348 296.256C348 296.413 347.938 296.563 347.827 296.674C347.716 296.785 347.566 296.847 347.409 296.847Z" fill="#CACACA"/>
<path id="Vector_31" d="M293.041 88.1923C292.732 87.7066 292.245 87.3607 291.685 87.2278C291.125 87.0949 290.535 87.1856 290.04 87.4805C290.77 86.4656 290.22 84.7311 289.076 84.03C287.78 83.2357 286.142 83.3673 284.63 83.5252L272.236 84.8204C270.807 84.9697 269.339 85.1306 268.066 85.7989C266.794 86.4672 265.748 87.7715 265.821 89.2071C264.85 88.8505 263.813 88.7097 262.781 88.7945C261.762 88.9552 260.758 89.7001 260.649 90.7262C260.475 92.3728 262.43 93.3237 264.022 93.7751C266.979 94.6132 269.935 95.4514 272.892 96.2895L271.98 96.4845C277.799 96.9933 283.656 96.1456 289.091 94.0079C290.337 93.5166 291.598 92.9281 292.47 91.9118C293.343 90.8954 293.723 89.345 293.041 88.1923Z" fill="#E6E6E6"/>
</g>
<defs>
<linearGradient id="paint0_linear_58_3" x1="31.0381" y1="44.2207" x2="128.374" y2="44.2207" gradientUnits="userSpaceOnUse">
<stop stop-color="#0A192F"/>
<stop offset="0.5" stop-color="#64FFDA"/>
<stop offset="1" stop-color="#E6F1FF"/>
</linearGradient>
<linearGradient id="paint1_linear_58_3" x1="31" y1="91" x2="113" y2="91" gradientUnits="userSpaceOnUse">
<stop stop-color="#0A192F"/>
<stop offset="0.5" stop-color="#64FFDA"/>
<stop offset="1" stop-color="#E6F1FF"/>
</linearGradient>
<linearGradient id="paint2_linear_58_3" x1="31.0381" y1="137.627" x2="153.205" y2="137.627" gradientUnits="userSpaceOnUse">
<stop stop-color="#0A192F"/>
<stop offset="0.5" stop-color="#64FFDA"/>
<stop offset="1" stop-color="#E6F1FF"/>
</linearGradient>
<clipPath id="clip0_58_3">
<rect width="348" height="297" fill="white"/>
</clipPath>
</defs>
</svg>
