<svg width="549" height="469" viewBox="0 0 549 469" fill="none" xmlns="http://www.w3.org/2000/svg">
<g id="persona" clip-path="url(#clip0_1_3)">
<path id="Vector" d="M428.365 459.039L420.535 459.039L416.809 428.788L428.367 428.789L428.365 459.039Z" fill="#FFB6B6"/>
<path id="Vector_2" d="M428.641 467.221L404.559 467.22V466.915C404.559 464.425 405.547 462.038 407.305 460.277C409.063 458.517 411.447 457.528 413.933 457.528L418.332 454.186L426.54 457.528L428.642 457.529L428.641 467.221Z" fill="#2F2E41"/>
<path id="Vector_3" d="M509.429 436.945L503.242 441.753L481.778 420.143L490.909 413.047L509.429 436.945Z" fill="#FFB6B6"/>
<path id="Vector_4" d="M514.656 443.238L495.631 458.025L495.444 457.784C493.92 455.817 493.238 453.324 493.549 450.854C493.86 448.384 495.138 446.139 497.102 444.613L498.531 439.271L507.061 436.872L508.722 435.581L514.656 443.238Z" fill="#2F2E41"/>
<path id="Vector_5" d="M475.554 290.585C475.554 290.585 475.02 298.775 474.346 310.483C474.235 312.403 474.887 314.489 474.771 316.578C474.693 317.964 473.849 319.311 473.771 320.756C473.688 322.281 474.854 323.631 474.771 325.208C474.69 326.749 473.36 328.516 473.279 330.094C472.416 347.067 469.287 367.387 472.42 373.067C473.965 375.867 497.491 414.65 497.491 414.65C497.491 414.65 486.522 431.126 483.389 425.634C479.25 418.38 447.35 384.444 447.35 377.963C447.35 371.49 439.97 322.98 439.97 322.98L434.824 351.688L432.464 357.376L433.206 360.715L431.681 365.222L431.599 369.681L430.114 377.963C430.114 377.963 434.58 442.487 432.065 444.283C429.542 446.088 417.328 449.328 415.887 446.088C414.453 442.847 408.961 378.748 408.961 378.748C408.961 378.748 407.457 349.373 405.827 322.07C405.733 320.485 404.621 318.571 404.534 317.01C404.433 315.197 405.138 312.844 405.044 311.086C404.942 309.07 404.049 307.65 403.963 305.72C403.297 290.805 403.195 279.052 404.386 277.263C407.982 271.865 411.217 267.55 411.217 267.55C411.217 267.55 462.612 254.95 475.554 271.143L475.554 290.585Z" fill="#2F2E41"/>
<path id="Vector_6" d="M429.331 136.126L441.723 135.432L451.062 140.537L477.031 287.814C477.031 287.814 450.484 300.102 434.031 295.395C417.579 290.687 400.253 290.952 400.253 290.952L412.878 150.248L423.063 140.833L429.331 136.126Z" fill="#E6E6E6"/>
<path id="Vector_7" d="M450.004 139.249L469.185 147.093C472.131 147.237 474.941 148.375 477.158 150.322C479.375 152.269 480.868 154.91 481.394 157.816L480.122 195.752L473.204 213.799L478.137 254.911L475.554 260.089L477.786 265.374C474.51 270.701 475.177 277.68 477.121 285.195H474.771L470.07 284.411C470.07 284.411 459.721 288.009 457.601 275.086C452.051 241.259 448.917 256.166 448.917 256.166L446.185 151.212L450.004 139.249Z" fill="#3F3D56"/>
<path id="Vector_8" d="M423.846 139.264L405.928 158.077C402.983 158.221 400.173 159.359 397.956 161.306C395.739 163.253 394.246 165.894 393.719 168.8L401.126 227.137L397.65 249.521L399.559 254.597L398.177 260.334L400.343 265.581L398.776 272.642L401.126 282.841L412.878 279.703L412.788 271.338L415.922 157.575L423.846 139.264Z" fill="#3F3D56"/>
<path id="Vector_9" d="M364.091 235.969L339.682 253.705C338.747 253.754 337.842 254.048 337.056 254.559C336.271 255.069 335.634 255.778 335.209 256.614C334.784 257.449 334.587 258.382 334.636 259.318C334.686 260.255 334.981 261.162 335.492 261.947C336.002 262.733 336.711 263.37 337.546 263.795C338.381 264.219 339.312 264.416 340.247 264.365C341.182 264.314 342.087 264.018 342.871 263.505C343.655 262.993 344.291 262.283 344.714 261.446L377.904 243.702L364.091 235.969Z" fill="#FFB6B6"/>
<path id="Vector_10" d="M397.993 161.232C393.354 163.375 381.894 218.233 378.53 219.396C375.167 220.559 376.451 220.384 375.979 221.355C375.507 222.326 375.393 226.674 372.164 227.184C368.935 227.695 351.876 243.27 351.876 243.27L356.2 257.705C356.2 257.705 389.028 238.924 398.08 228.523C407.131 218.123 412.005 164.636 412.005 164.636L412.931 159.3C412.931 159.3 402.631 159.09 397.993 161.232Z" fill="#3F3D56"/>
<path id="Vector_11" d="M471.607 228.725L449.855 249.643C448.935 249.82 448.078 250.235 447.37 250.849C446.662 251.462 446.128 252.252 445.821 253.138C445.515 254.024 445.447 254.975 445.624 255.896C445.801 256.816 446.217 257.674 446.831 258.382C447.444 259.091 448.233 259.625 449.118 259.931C450.003 260.237 450.953 260.304 451.872 260.125C452.792 259.947 453.648 259.529 454.354 258.914C455.061 258.298 455.593 257.508 455.898 256.621L486.348 234.492L471.607 228.725Z" fill="#FFB6B6"/>
<path id="Vector_12" d="M474.771 165.94C470.469 168.699 486.817 208.715 483.644 210.329C480.471 211.942 481.719 211.593 481.385 212.619C481.05 213.646 481.532 217.968 478.403 218.917C475.275 219.865 460.506 237.633 460.506 237.633L466.764 251.34C466.764 251.34 496.714 228.232 504.257 216.688C511.801 205.144 506.892 201.246 506.892 201.246C497.533 181.339 488.779 148.875 475.554 151.033C475.554 151.033 479.073 163.181 474.771 165.94Z" fill="#3F3D56"/>
<path id="Vector_13" d="M431.988 133.02C443.587 133.02 452.99 123.604 452.99 111.988C452.99 100.373 443.587 90.9564 431.988 90.9564C420.389 90.9564 410.987 100.373 410.987 111.988C410.987 123.604 420.389 133.02 431.988 133.02Z" fill="#FFB6B6"/>
<path id="Vector_14" d="M453.255 125.54C453.255 125.54 448.63 126.81 445.938 127.517C446.077 125.511 446.945 123.633 447.385 121.671C447.826 119.709 447.73 117.401 446.274 116.015C444.818 114.63 441.785 115.17 441.55 117.163C440.318 114.525 439.084 111.882 437.847 109.235C434.319 116.505 427.108 110.309 419.245 112.146C415.234 113.093 410.207 112.686 408.088 109.147C409.279 108.146 410.282 106.94 411.051 105.587C409.828 105.946 408.557 106.107 407.284 106.065C407.313 104.799 407.645 103.558 408.253 102.448C408.86 101.337 409.725 100.389 410.775 99.6826C411.906 98.9421 409.107 96.3075 410.094 95.3801C412.118 93.4873 413.477 94.7726 414.673 92.2776C415.444 90.7348 416.632 89.4397 418.102 88.5397C419.571 87.6398 421.264 87.1711 422.987 87.1871C426.424 87.2677 432.582 87.2345 433.916 90.4054C438.165 87.6194 444.081 88.4066 448.235 91.3291C451.688 93.749 455.618 101.063 456.485 105.192C457.352 109.321 455.441 121.941 453.255 125.54Z" fill="#2F2E41"/>
<path id="barra-1" class="barra-1" d="M193.12 79.2445H58.6425C56.2238 79.2756 53.8832 78.388 52.0917 76.7605C50.3002 75.1329 49.1909 72.8861 48.9871 70.4724C48.8999 69.185 49.0777 67.8934 49.5096 66.6777C49.9414 65.462 50.618 64.3481 51.4975 63.405C52.377 62.462 53.4406 61.71 54.6223 61.1956C55.804 60.6812 57.0786 60.4154 58.3671 60.4147H193.12C195.614 60.4147 198.005 61.4066 199.768 63.1723C201.531 64.9379 202.522 67.3326 202.522 69.8296C202.522 72.3266 201.531 74.7213 199.768 76.4869C198.005 78.2526 195.614 79.2445 193.12 79.2445Z" fill="url(#paint0_linear_1_3)"/>
<path id="Vector_15" d="M270.475 94.5437H49.3574C49.1496 94.5437 48.9503 94.461 48.8034 94.3139C48.6564 94.1667 48.5739 93.9672 48.5739 93.7591C48.5739 93.551 48.6564 93.3515 48.8034 93.2043C48.9503 93.0572 49.1496 92.9745 49.3574 92.9745H270.475C270.683 92.9745 270.882 93.0572 271.029 93.2043C271.176 93.3515 271.259 93.551 271.259 93.7591C271.259 93.9672 271.176 94.1667 271.029 94.3139C270.882 94.461 270.683 94.5437 270.475 94.5437Z" fill="#CBD7E3"/>
<path id="Vector_16" d="M261.281 79.6367H58.367C55.7697 79.6367 53.2788 78.6035 51.4423 76.7643C49.6057 74.9251 48.5739 72.4306 48.5739 69.8296C48.5739 67.2285 49.6057 64.7341 51.4423 62.8949C53.2788 61.0557 55.7697 60.0224 58.367 60.0224H261.281C263.878 60.0224 266.369 61.0557 268.205 62.8949C270.042 64.7341 271.074 67.2285 271.074 69.8296C271.074 72.4306 270.042 74.9251 268.205 76.7643C266.369 78.6035 263.878 79.6367 261.281 79.6367ZM58.367 61.5915C56.1853 61.5915 54.0929 62.4595 52.5502 64.0044C51.0075 65.5493 50.1408 67.6447 50.1408 69.8296C50.1408 72.0144 51.0075 74.1098 52.5502 75.6547C54.0929 77.1997 56.1853 78.0676 58.367 78.0676H261.281C263.462 78.0676 265.555 77.1997 267.097 75.6547C268.64 74.1098 269.507 72.0144 269.507 69.8296C269.507 67.6447 268.64 65.5493 267.097 64.0044C265.555 62.4595 263.462 61.5915 261.281 61.5915H58.367Z" fill="#3F3D56"/>
<path id="barra-2" class="barra-2" d="M165.222 153.174H62.3324C58.9764 153.206 55.7287 152.312 53.2429 150.675C50.7572 149.037 49.218 146.776 48.9351 144.347C48.8141 143.051 49.0609 141.752 49.6601 140.528C50.2593 139.305 51.1981 138.184 52.4185 137.235C53.6388 136.286 55.1145 135.529 56.7542 135.011C58.3938 134.494 60.1624 134.226 61.9503 134.226H165.222C168.682 134.226 172 135.224 174.446 137.001C176.893 138.777 178.267 141.187 178.267 143.7C178.267 146.213 176.893 148.623 174.446 150.399C172 152.176 168.682 153.174 165.222 153.174Z" fill="url(#paint1_linear_1_3)"/>
<path id="Vector_17" d="M270.475 168.294H49.3574C49.1496 168.294 48.9503 168.211 48.8034 168.064C48.6564 167.917 48.5739 167.717 48.5739 167.509C48.5739 167.301 48.6564 167.101 48.8034 166.954C48.9503 166.807 49.1496 166.724 49.3574 166.724H270.475C270.683 166.724 270.882 166.807 271.029 166.954C271.176 167.101 271.259 167.301 271.259 167.509C271.259 167.717 271.176 167.917 271.029 168.064C270.882 168.211 270.683 168.294 270.475 168.294Z" fill="#CBD7E3"/>
<path id="Vector_18" d="M261.281 153.387H58.367C55.7697 153.387 53.2788 152.353 51.4423 150.514C49.6057 148.675 48.5739 146.181 48.5739 143.58C48.5739 140.978 49.6057 138.484 51.4423 136.645C53.2788 134.806 55.7697 133.772 58.367 133.772H261.281C263.878 133.772 266.369 134.806 268.205 136.645C270.042 138.484 271.074 140.978 271.074 143.58C271.074 146.181 270.042 148.675 268.205 150.514C266.369 152.353 263.878 153.387 261.281 153.387ZM58.367 135.341C56.1853 135.341 54.0929 136.209 52.5502 137.754C51.0075 139.299 50.1408 141.395 50.1408 143.58C50.1408 145.764 51.0075 147.86 52.5502 149.405C54.0929 150.95 56.1853 151.818 58.367 151.818H261.281C263.462 151.818 265.555 150.95 267.097 149.405C268.64 147.86 269.507 145.764 269.507 143.58C269.507 141.395 268.64 139.299 267.097 137.754C265.555 136.209 263.462 135.341 261.281 135.341H58.367Z" fill="#3F3D56"/>
<path id="barra-3" class="barra-3" d="M232.293 226.744H58.6425C56.2238 226.776 53.8832 225.888 52.0917 224.26C50.3002 222.633 49.1909 220.386 48.9871 217.972C48.8999 216.685 49.0777 215.393 49.5096 214.178C49.9414 212.962 50.618 211.848 51.4975 210.905C52.377 209.962 53.4406 209.21 54.6223 208.696C55.804 208.181 57.0786 207.915 58.3671 207.915H232.293C234.786 207.915 237.178 208.907 238.941 210.672C240.704 212.438 241.694 214.833 241.694 217.329C241.694 219.826 240.704 222.221 238.941 223.987C237.178 225.752 234.786 226.744 232.293 226.744Z" fill="url(#paint2_linear_1_3)"/>
<path id="Vector_19" d="M270.475 242.044H49.3574C49.1496 242.044 48.9503 241.961 48.8034 241.814C48.6564 241.667 48.5739 241.467 48.5739 241.259C48.5739 241.051 48.6564 240.851 48.8034 240.704C48.9503 240.557 49.1496 240.474 49.3574 240.474H270.475C270.683 240.474 270.882 240.557 271.029 240.704C271.176 240.851 271.259 241.051 271.259 241.259C271.259 241.467 271.176 241.667 271.029 241.814C270.882 241.961 270.683 242.044 270.475 242.044Z" fill="#CBD7E3"/>
<path id="Vector_20" d="M261.281 227.137H58.367C55.7697 227.137 53.2788 226.103 51.4423 224.264C49.6057 222.425 48.5739 219.931 48.5739 217.329C48.5739 214.728 49.6057 212.234 51.4423 210.395C53.2788 208.556 55.7697 207.522 58.367 207.522H261.281C263.878 207.522 266.369 208.556 268.205 210.395C270.042 212.234 271.074 214.728 271.074 217.329C271.074 219.931 270.042 222.425 268.205 224.264C266.369 226.103 263.878 227.137 261.281 227.137ZM58.367 209.091C56.1853 209.091 54.0929 209.959 52.5502 211.504C51.0075 213.049 50.1408 215.145 50.1408 217.329C50.1408 219.514 51.0075 221.61 52.5502 223.155C54.0929 224.7 56.1853 225.568 58.367 225.568H261.281C263.462 225.568 265.555 224.7 267.097 223.155C268.64 221.61 269.507 219.514 269.507 217.329C269.507 215.145 268.64 213.049 267.097 211.504C265.555 209.959 263.462 209.091 261.281 209.091H58.367Z" fill="#3F3D56"/>
<g id="lines-circle-1" class="lines-circle-1" >
<path id="Vector_21" d="M180.361 69.6749H178.794V9.229H292.126V10.7982H180.361V69.6749Z" fill="#E6F1FF"/>
<path id="Vector_22" d="M296.97 18.7449C302.139 18.7449 306.329 14.5487 306.329 9.37244C306.329 4.19619 302.139 0 296.97 0C291.801 0 287.611 4.19619 287.611 9.37244C287.611 14.5487 291.801 18.7449 296.97 18.7449Z" fill="#E6F1FF"/>
</g>
<g id="lines-circle-3" class="lines-circle-3">
<path id="Vector_23" d="M125.968 143.425H127.535V108.87H14.2032V110.439H125.968V143.425Z" fill="#E6F1FF"/>
<path id="Vector_24" d="M9.35901 118.386C14.5279 118.386 18.718 114.19 18.718 109.013C18.718 103.837 14.5279 99.6409 9.35901 99.6409C4.19017 99.6409 0 103.837 0 109.013C0 114.19 4.19017 118.386 9.35901 118.386Z" fill="#E6F1FF"/>
</g>
<g id="lines-circle-3_2" class="lines-circle-3_2">
<path id="Vector_25" d="M232.069 219.838H230.502V263.024H326.598V261.455H232.069V219.838Z" fill="#E6F1FF"/>
<path id="Vector_26" d="M331.442 272.252C336.611 272.252 340.801 268.056 340.801 262.88C340.801 257.704 336.611 253.507 331.442 253.507C326.273 253.507 322.083 257.704 322.083 262.88C322.083 268.056 326.273 272.252 331.442 272.252Z" fill="#E6F1FF"/>
</g>
<path id="Vector_27" d="M548.067 468.759L335.165 469C335.042 469 334.92 468.976 334.807 468.93C334.693 468.883 334.59 468.814 334.503 468.727C334.416 468.641 334.347 468.537 334.3 468.424C334.253 468.31 334.229 468.189 334.229 468.066C334.229 467.943 334.253 467.821 334.3 467.708C334.347 467.594 334.416 467.491 334.503 467.404C334.59 467.318 334.693 467.249 334.807 467.202C334.92 467.155 335.042 467.131 335.165 467.132L548.067 466.891C548.315 466.891 548.552 466.989 548.727 467.164C548.902 467.339 549 467.577 549 467.825C549 468.072 548.902 468.31 548.727 468.485C548.552 468.66 548.315 468.759 548.067 468.759Z" fill="#CACACA"/>
<path id="Vector_28" d="M462.298 139.267C461.81 138.5 461.042 137.953 460.158 137.744C459.275 137.534 458.344 137.677 457.564 138.143C458.715 136.54 457.848 133.801 456.043 132.694C453.998 131.44 451.414 131.647 449.029 131.897L429.476 133.942C427.222 134.178 424.905 134.432 422.898 135.487C420.891 136.543 419.24 138.602 419.356 140.869C417.824 140.306 416.187 140.084 414.56 140.218C412.953 140.471 411.368 141.648 411.197 143.268C410.921 145.868 414.006 147.37 416.518 148.083C421.182 149.406 425.847 150.73 430.511 152.053L429.073 152.361C438.252 153.164 447.492 151.826 456.067 148.45C458.032 147.674 460.022 146.745 461.398 145.14C462.773 143.535 463.374 141.087 462.298 139.267Z" fill="#E6E6E6"/>
</g>
<defs>
<linearGradient id="paint0_linear_1_3" x1="48.9655" y1="69.83" x2="202.522" y2="69.83" gradientUnits="userSpaceOnUse">
<stop stop-color="#0A192F"/>
<stop offset="0.5" stop-color="#64FFDA"/>
<stop offset="1" stop-color="#E6F1FF"/>
</linearGradient>
<linearGradient id="paint1_linear_1_3" x1="48.9052" y1="143.7" x2="178.267" y2="143.7" gradientUnits="userSpaceOnUse">
<stop stop-color="#0A192F"/>
<stop offset="0.5" stop-color="#64FFDA"/>
<stop offset="1" stop-color="#E6F1FF"/>
</linearGradient>
<linearGradient id="paint2_linear_1_3" x1="48.9655" y1="217.33" x2="241.694" y2="217.33" gradientUnits="userSpaceOnUse">
<stop stop-color="#0A192F"/>
<stop offset="0.5" stop-color="#64FFDA"/>
<stop offset="1" stop-color="#E6F1FF"/>
</linearGradient>
<clipPath id="clip0_1_3">
<rect width="549" height="469" fill="white"/>
</clipPath>
</defs>
</svg>
